<svg xmlns="http://www.w3.org/2000/svg" xmlns:xlink="http://www.w3.org/1999/xlink" width="1080" zoomAndPan="magnify" viewBox="0 0 810 149.999998" height="200" preserveAspectRatio="xMidYMid meet" version="1.0"><defs><g/></defs><g fill="#000000" fill-opacity="1"><g transform="translate(151.7116, 40.624088)"><g><path d="M 18.5 -19.84375 C 17.675781 -17.988281 17.003906 -16.421875 16.484375 -15.140625 C 15.972656 -13.867188 15.582031 -12.90625 15.3125 -12.25 C 15.144531 -11.84375 15.0625 -11.421875 15.0625 -10.984375 C 15.039062 -10.441406 15.015625 -9.796875 14.984375 -9.046875 C 14.953125 -8.296875 14.9375 -7.441406 14.9375 -6.484375 C 14.9375 -5.128906 14.957031 -3.984375 15 -3.046875 C 15.039062 -2.109375 15.078125 -1.378906 15.109375 -0.859375 C 15.128906 -0.609375 15.054688 -0.398438 14.890625 -0.234375 C 14.734375 -0.078125 14.535156 0 14.296875 0 L 9.640625 0 C 9.390625 0 9.179688 -0.078125 9.015625 -0.234375 C 8.859375 -0.398438 8.789062 -0.609375 8.8125 -0.859375 C 8.84375 -1.378906 8.878906 -2.109375 8.921875 -3.046875 C 8.960938 -3.984375 8.984375 -5.128906 8.984375 -6.484375 C 8.984375 -7.441406 8.96875 -8.296875 8.9375 -9.046875 C 8.914062 -9.796875 8.890625 -10.441406 8.859375 -10.984375 C 8.859375 -11.421875 8.773438 -11.84375 8.609375 -12.25 C 8.335938 -12.90625 7.941406 -13.867188 7.421875 -15.140625 C 6.910156 -16.421875 6.25 -17.988281 5.4375 -19.84375 C 4.613281 -21.664062 3.898438 -23.207031 3.296875 -24.46875 C 2.703125 -25.738281 2.242188 -26.726562 1.921875 -27.4375 C 1.785156 -27.675781 1.796875 -27.925781 1.953125 -28.1875 C 2.117188 -28.445312 2.351562 -28.578125 2.65625 -28.578125 L 7.1875 -28.578125 C 7.5625 -28.578125 7.820312 -28.390625 7.96875 -28.015625 C 8.125 -27.441406 8.425781 -26.46875 8.875 -25.09375 C 9.320312 -23.71875 9.929688 -21.96875 10.703125 -19.84375 C 11.023438 -18.945312 11.335938 -18.085938 11.640625 -17.265625 C 11.691406 -17.109375 11.796875 -17.03125 11.953125 -17.03125 C 12.117188 -17.03125 12.234375 -17.109375 12.296875 -17.265625 C 12.585938 -18.085938 12.898438 -18.945312 13.234375 -19.84375 C 13.992188 -21.96875 14.597656 -23.71875 15.046875 -25.09375 C 15.492188 -26.46875 15.800781 -27.441406 15.96875 -28.015625 C 16.101562 -28.390625 16.359375 -28.578125 16.734375 -28.578125 L 21.265625 -28.578125 C 21.566406 -28.578125 21.796875 -28.445312 21.953125 -28.1875 C 22.117188 -27.925781 22.132812 -27.675781 22 -27.4375 C 21.675781 -26.726562 21.210938 -25.738281 20.609375 -24.46875 C 20.015625 -23.207031 19.3125 -21.664062 18.5 -19.84375 Z M 18.5 -19.84375 "/></g></g></g><g fill="#000000" fill-opacity="1"><g transform="translate(175.672135, 40.624088)"><g><path d="M 21.921875 -19.96875 C 21.921875 -19.394531 21.90625 -18.847656 21.875 -18.328125 C 21.851562 -17.816406 21.828125 -17.242188 21.796875 -16.609375 C 21.773438 -15.984375 21.765625 -15.210938 21.765625 -14.296875 C 21.765625 -13.367188 21.773438 -12.59375 21.796875 -11.96875 C 21.828125 -11.34375 21.851562 -10.769531 21.875 -10.25 C 21.90625 -9.726562 21.921875 -9.179688 21.921875 -8.609375 C 21.921875 -6.867188 21.609375 -5.320312 20.984375 -3.96875 C 20.359375 -2.625 19.316406 -1.5625 17.859375 -0.78125 C 16.398438 -0.0078125 14.445312 0.375 12 0.375 C 9.5 0.375 7.519531 -0.0625 6.0625 -0.9375 C 4.601562 -1.8125 3.566406 -2.9375 2.953125 -4.3125 C 2.347656 -5.6875 2.046875 -7.117188 2.046875 -8.609375 C 2.046875 -9.179688 2.054688 -9.726562 2.078125 -10.25 C 2.109375 -10.769531 2.144531 -11.34375 2.1875 -11.96875 C 2.226562 -12.59375 2.25 -13.367188 2.25 -14.296875 C 2.25 -15.210938 2.226562 -15.984375 2.1875 -16.609375 C 2.144531 -17.242188 2.109375 -17.816406 2.078125 -18.328125 C 2.054688 -18.847656 2.046875 -19.394531 2.046875 -19.96875 C 2.046875 -21.707031 2.363281 -23.25 3 -24.59375 C 3.632812 -25.945312 4.671875 -27.007812 6.109375 -27.78125 C 7.554688 -28.5625 9.519531 -28.953125 12 -28.953125 C 14.476562 -28.953125 16.445312 -28.515625 17.90625 -27.640625 C 19.363281 -26.765625 20.394531 -25.640625 21 -24.265625 C 21.613281 -22.890625 21.921875 -21.457031 21.921875 -19.96875 Z M 11.921875 -3.953125 C 12.984375 -3.953125 13.769531 -4.195312 14.28125 -4.6875 C 14.800781 -5.1875 15.132812 -5.796875 15.28125 -6.515625 C 15.4375 -7.234375 15.515625 -7.929688 15.515625 -8.609375 L 15.515625 -19.96875 C 15.515625 -20.207031 15.484375 -20.578125 15.421875 -21.078125 C 15.367188 -21.585938 15.238281 -22.113281 15.03125 -22.65625 C 14.832031 -23.195312 14.5 -23.660156 14.03125 -24.046875 C 13.570312 -24.429688 12.921875 -24.625 12.078125 -24.625 C 10.992188 -24.625 10.191406 -24.378906 9.671875 -23.890625 C 9.160156 -23.398438 8.835938 -22.789062 8.703125 -22.0625 C 8.566406 -21.34375 8.5 -20.644531 8.5 -19.96875 L 8.5 -8.609375 C 8.5 -8.367188 8.515625 -7.992188 8.546875 -7.484375 C 8.585938 -6.984375 8.710938 -6.460938 8.921875 -5.921875 C 9.128906 -5.378906 9.46875 -4.914062 9.9375 -4.53125 C 10.414062 -4.144531 11.078125 -3.953125 11.921875 -3.953125 Z M 11.921875 -3.953125 "/></g></g></g><g fill="#000000" fill-opacity="1"><g transform="translate(199.673487, 40.624088)"><g><path d="M 21.0625 -28.578125 C 21.3125 -28.578125 21.507812 -28.492188 21.65625 -28.328125 C 21.8125 -28.171875 21.890625 -27.984375 21.890625 -27.765625 C 21.859375 -27.054688 21.820312 -25.988281 21.78125 -24.5625 C 21.738281 -23.132812 21.695312 -21.503906 21.65625 -19.671875 C 21.613281 -17.847656 21.578125 -15.960938 21.546875 -14.015625 C 21.523438 -12.078125 21.515625 -10.238281 21.515625 -8.5 C 21.515625 -6.78125 21.226562 -5.242188 20.65625 -3.890625 C 20.082031 -2.546875 19.101562 -1.484375 17.71875 -0.703125 C 16.332031 0.0664062 14.414062 0.453125 11.96875 0.453125 C 10.082031 0.453125 8.523438 0.203125 7.296875 -0.296875 C 6.078125 -0.804688 5.109375 -1.488281 4.390625 -2.34375 C 3.671875 -3.207031 3.160156 -4.164062 2.859375 -5.21875 C 2.554688 -6.28125 2.40625 -7.375 2.40625 -8.5 C 2.40625 -10.238281 2.390625 -12.078125 2.359375 -14.015625 C 2.335938 -15.960938 2.304688 -17.847656 2.265625 -19.671875 C 2.222656 -21.503906 2.179688 -23.132812 2.140625 -24.5625 C 2.097656 -25.988281 2.066406 -27.054688 2.046875 -27.765625 C 2.046875 -27.984375 2.117188 -28.171875 2.265625 -28.328125 C 2.410156 -28.492188 2.609375 -28.578125 2.859375 -28.578125 L 7.640625 -28.578125 C 7.859375 -28.578125 8.046875 -28.492188 8.203125 -28.328125 C 8.367188 -28.171875 8.453125 -27.984375 8.453125 -27.765625 L 8.453125 -8.5 C 8.453125 -8.25 8.472656 -7.867188 8.515625 -7.359375 C 8.554688 -6.859375 8.675781 -6.34375 8.875 -5.8125 C 9.082031 -5.28125 9.421875 -4.820312 9.890625 -4.4375 C 10.367188 -4.0625 11.03125 -3.875 11.875 -3.875 C 12.96875 -3.875 13.765625 -4.117188 14.265625 -4.609375 C 14.773438 -5.097656 15.101562 -5.695312 15.25 -6.40625 C 15.394531 -7.113281 15.46875 -7.8125 15.46875 -8.5 L 15.46875 -27.765625 C 15.46875 -27.984375 15.550781 -28.171875 15.71875 -28.328125 C 15.882812 -28.492188 16.078125 -28.578125 16.296875 -28.578125 Z M 21.0625 -28.578125 "/></g></g></g><g fill="#000000" fill-opacity="1"><g transform="translate(223.634022, 40.624088)"><g><path d="M 20.984375 0 L 15.796875 0 C 15.578125 0 15.382812 -0.078125 15.21875 -0.234375 C 15.0625 -0.398438 14.984375 -0.59375 14.984375 -0.8125 L 14.984375 -7.109375 C 14.984375 -7.734375 14.882812 -8.34375 14.6875 -8.9375 C 14.5 -9.539062 14.15625 -10.039062 13.65625 -10.4375 C 13.15625 -10.832031 12.453125 -11.03125 11.546875 -11.03125 L 9.015625 -11.03125 C 8.804688 -11.03125 8.617188 -10.945312 8.453125 -10.78125 C 8.285156 -10.613281 8.21875 -10.421875 8.25 -10.203125 C 8.25 -7.804688 8.269531 -5.816406 8.3125 -4.234375 C 8.351562 -2.660156 8.382812 -1.519531 8.40625 -0.8125 C 8.40625 -0.59375 8.332031 -0.398438 8.1875 -0.234375 C 8.039062 -0.078125 7.84375 0 7.59375 0 L 2.859375 0 C 2.609375 0 2.410156 -0.078125 2.265625 -0.234375 C 2.117188 -0.398438 2.046875 -0.59375 2.046875 -0.8125 C 2.066406 -1.707031 2.101562 -3.289062 2.15625 -5.5625 C 2.21875 -7.84375 2.25 -10.753906 2.25 -14.296875 C 2.25 -17.859375 2.21875 -20.769531 2.15625 -23.03125 C 2.101562 -25.289062 2.066406 -26.867188 2.046875 -27.765625 C 2.046875 -27.984375 2.117188 -28.171875 2.265625 -28.328125 C 2.410156 -28.492188 2.609375 -28.578125 2.859375 -28.578125 L 11.71875 -28.578125 C 13.050781 -28.578125 14.316406 -28.453125 15.515625 -28.203125 C 16.710938 -27.960938 17.773438 -27.53125 18.703125 -26.90625 C 19.628906 -26.28125 20.359375 -25.410156 20.890625 -24.296875 C 21.421875 -23.179688 21.6875 -21.75 21.6875 -20 C 21.6875 -18.394531 21.320312 -17.066406 20.59375 -16.015625 C 19.875 -14.972656 18.941406 -14.15625 17.796875 -13.5625 C 17.691406 -13.5 17.640625 -13.398438 17.640625 -13.265625 C 17.640625 -13.128906 17.707031 -13.019531 17.84375 -12.9375 C 18.875 -12.445312 19.726562 -11.734375 20.40625 -10.796875 C 21.09375 -9.859375 21.4375 -8.628906 21.4375 -7.109375 C 21.4375 -5.640625 21.476562 -4.378906 21.5625 -3.328125 C 21.644531 -2.273438 21.722656 -1.460938 21.796875 -0.890625 C 21.828125 -0.648438 21.757812 -0.441406 21.59375 -0.265625 C 21.4375 -0.0859375 21.234375 0 20.984375 0 Z M 11.796875 -24.25 L 9.109375 -24.25 C 8.890625 -24.25 8.695312 -24.171875 8.53125 -24.015625 C 8.363281 -23.867188 8.28125 -23.6875 8.28125 -23.46875 C 8.28125 -22.488281 8.265625 -21.394531 8.234375 -20.1875 C 8.210938 -18.976562 8.203125 -17.640625 8.203125 -16.171875 C 8.203125 -15.921875 8.285156 -15.71875 8.453125 -15.5625 C 8.617188 -15.414062 8.804688 -15.34375 9.015625 -15.34375 L 11.796875 -15.34375 C 12.691406 -15.34375 13.390625 -15.601562 13.890625 -16.125 C 14.398438 -16.644531 14.75 -17.265625 14.9375 -17.984375 C 15.132812 -18.703125 15.234375 -19.375 15.234375 -20 C 15.234375 -21.09375 15.035156 -21.941406 14.640625 -22.546875 C 14.242188 -23.160156 13.78125 -23.597656 13.25 -23.859375 C 12.71875 -24.117188 12.234375 -24.25 11.796875 -24.25 Z M 11.796875 -24.25 "/></g></g></g><g fill="#000000" fill-opacity="1"><g transform="translate(247.472105, 40.624088)"><g/></g></g><g fill="#000000" fill-opacity="1"><g transform="translate(259.636058, 40.624088)"><g><path d="M 8.453125 -28.578125 L 19.765625 -28.578125 C 20.003906 -28.578125 20.195312 -28.492188 20.34375 -28.328125 C 20.5 -28.171875 20.578125 -27.984375 20.578125 -27.765625 L 20.578125 -25.0625 C 20.578125 -24.84375 20.5 -24.648438 20.34375 -24.484375 C 20.195312 -24.328125 20.003906 -24.25 19.765625 -24.25 L 9.109375 -24.25 C 8.890625 -24.25 8.695312 -24.171875 8.53125 -24.015625 C 8.363281 -23.867188 8.28125 -23.6875 8.28125 -23.46875 C 8.28125 -22.625 8.273438 -21.6875 8.265625 -20.65625 C 8.253906 -19.625 8.234375 -18.492188 8.203125 -17.265625 C 8.203125 -17.046875 8.285156 -16.851562 8.453125 -16.6875 C 8.617188 -16.53125 8.804688 -16.453125 9.015625 -16.453125 L 17.640625 -16.453125 C 17.859375 -16.453125 18.046875 -16.367188 18.203125 -16.203125 C 18.367188 -16.046875 18.453125 -15.859375 18.453125 -15.640625 L 18.453125 -12.9375 C 18.453125 -12.71875 18.367188 -12.523438 18.203125 -12.359375 C 18.046875 -12.203125 17.859375 -12.125 17.640625 -12.125 L 9.015625 -12.125 C 8.804688 -12.125 8.617188 -12.039062 8.453125 -11.875 C 8.285156 -11.71875 8.203125 -11.53125 8.203125 -11.3125 C 8.234375 -8.613281 8.269531 -6.378906 8.3125 -4.609375 C 8.351562 -2.835938 8.382812 -1.570312 8.40625 -0.8125 C 8.40625 -0.59375 8.332031 -0.398438 8.1875 -0.234375 C 8.039062 -0.078125 7.84375 0 7.59375 0 L 2.859375 0 C 2.609375 0 2.410156 -0.078125 2.265625 -0.234375 C 2.117188 -0.398438 2.046875 -0.59375 2.046875 -0.8125 C 2.066406 -1.707031 2.101562 -3.289062 2.15625 -5.5625 C 2.21875 -7.84375 2.25 -10.753906 2.25 -14.296875 C 2.25 -17.859375 2.21875 -20.769531 2.15625 -23.03125 C 2.101562 -25.289062 2.066406 -26.867188 2.046875 -27.765625 C 2.046875 -27.984375 2.117188 -28.171875 2.265625 -28.328125 C 2.410156 -28.492188 2.609375 -28.578125 2.859375 -28.578125 Z M 8.453125 -28.578125 "/></g></g></g><g fill="#000000" fill-opacity="1"><g transform="translate(282.290396, 40.624088)"><g><path d="M 19.5625 0 C 19.09375 0 18.816406 -0.21875 18.734375 -0.65625 C 18.679688 -1.03125 18.585938 -1.570312 18.453125 -2.28125 C 18.316406 -2.988281 18.15625 -3.863281 17.96875 -4.90625 C 17.882812 -5.332031 17.625 -5.546875 17.1875 -5.546875 L 9.796875 -5.546875 C 9.359375 -5.546875 9.085938 -5.332031 8.984375 -4.90625 C 8.796875 -3.863281 8.640625 -2.988281 8.515625 -2.28125 C 8.390625 -1.570312 8.285156 -1.03125 8.203125 -0.65625 C 8.148438 -0.21875 7.894531 0 7.4375 0 L 2.65625 0 C 2.382812 0 2.164062 -0.0976562 2 -0.296875 C 1.832031 -0.503906 1.789062 -0.734375 1.875 -0.984375 C 2.09375 -1.929688 2.457031 -3.523438 2.96875 -5.765625 C 3.488281 -8.015625 4.117188 -10.859375 4.859375 -14.296875 C 5.648438 -17.960938 6.257812 -20.945312 6.6875 -23.25 C 7.125 -25.550781 7.410156 -27.109375 7.546875 -27.921875 C 7.628906 -28.359375 7.890625 -28.578125 8.328125 -28.578125 L 18.625 -28.578125 C 19.082031 -28.578125 19.351562 -28.359375 19.4375 -27.921875 C 19.570312 -27.109375 19.851562 -25.550781 20.28125 -23.25 C 20.71875 -20.945312 21.320312 -17.960938 22.09375 -14.296875 C 22.820312 -10.859375 23.441406 -8.015625 23.953125 -5.765625 C 24.472656 -3.523438 24.859375 -1.929688 25.109375 -0.984375 C 25.160156 -0.734375 25.101562 -0.503906 24.9375 -0.296875 C 24.78125 -0.0976562 24.578125 0 24.328125 0 Z M 10.984375 -9.875 L 16 -9.875 C 16.25 -9.875 16.453125 -9.96875 16.609375 -10.15625 C 16.773438 -10.351562 16.832031 -10.570312 16.78125 -10.8125 C 16.664062 -11.363281 16.546875 -11.929688 16.421875 -12.515625 C 16.304688 -13.097656 16.179688 -13.691406 16.046875 -14.296875 C 15.640625 -16.222656 15.265625 -17.96875 14.921875 -19.53125 C 14.578125 -21.101562 14.269531 -22.457031 14 -23.59375 C 13.945312 -23.863281 13.773438 -24 13.484375 -24 C 13.203125 -24 13.019531 -23.863281 12.9375 -23.59375 C 12.695312 -22.457031 12.398438 -21.101562 12.046875 -19.53125 C 11.691406 -17.96875 11.3125 -16.222656 10.90625 -14.296875 C 10.769531 -13.691406 10.640625 -13.097656 10.515625 -12.515625 C 10.390625 -11.929688 10.273438 -11.363281 10.171875 -10.8125 C 10.109375 -10.570312 10.160156 -10.351562 10.328125 -10.15625 C 10.492188 -9.96875 10.710938 -9.875 10.984375 -9.875 Z M 10.984375 -9.875 "/></g></g></g><g fill="#000000" fill-opacity="1"><g transform="translate(309.271511, 40.624088)"><g><path d="M 15.390625 -14.296875 C 16.148438 -17.941406 16.75 -20.910156 17.1875 -23.203125 C 17.625 -25.503906 17.925781 -27.078125 18.09375 -27.921875 C 18.144531 -28.359375 18.398438 -28.578125 18.859375 -28.578125 L 23.640625 -28.578125 C 23.910156 -28.578125 24.125 -28.472656 24.28125 -28.265625 C 24.445312 -28.066406 24.492188 -27.84375 24.421875 -27.59375 C 24.203125 -26.644531 23.828125 -25.046875 23.296875 -22.796875 C 22.765625 -20.554688 22.144531 -17.722656 21.4375 -14.296875 C 20.644531 -10.617188 20.03125 -7.628906 19.59375 -5.328125 C 19.15625 -3.023438 18.867188 -1.46875 18.734375 -0.65625 C 18.660156 -0.21875 18.40625 0 17.96875 0 L 8.328125 0 C 7.890625 0 7.628906 -0.21875 7.546875 -0.65625 C 7.410156 -1.46875 7.125 -3.023438 6.6875 -5.328125 C 6.257812 -7.628906 5.648438 -10.617188 4.859375 -14.296875 C 4.117188 -17.722656 3.488281 -20.554688 2.96875 -22.796875 C 2.457031 -25.046875 2.09375 -26.644531 1.875 -27.59375 C 1.789062 -27.84375 1.832031 -28.066406 2 -28.265625 C 2.164062 -28.472656 2.382812 -28.578125 2.65625 -28.578125 L 7.4375 -28.578125 C 7.863281 -28.578125 8.117188 -28.359375 8.203125 -27.921875 C 8.367188 -27.078125 8.671875 -25.503906 9.109375 -23.203125 C 9.546875 -20.910156 10.144531 -17.941406 10.90625 -14.296875 C 11.28125 -12.523438 11.625 -10.910156 11.9375 -9.453125 C 12.25 -7.992188 12.539062 -6.707031 12.8125 -5.59375 C 12.84375 -5.40625 12.945312 -5.3125 13.125 -5.3125 C 13.300781 -5.3125 13.414062 -5.40625 13.46875 -5.59375 C 13.71875 -6.707031 14.003906 -7.992188 14.328125 -9.453125 C 14.660156 -10.910156 15.015625 -12.523438 15.390625 -14.296875 Z M 15.390625 -14.296875 "/></g></g></g><g fill="#000000" fill-opacity="1"><g transform="translate(335.558702, 40.624088)"><g><path d="M 21.921875 -19.96875 C 21.921875 -19.394531 21.90625 -18.847656 21.875 -18.328125 C 21.851562 -17.816406 21.828125 -17.242188 21.796875 -16.609375 C 21.773438 -15.984375 21.765625 -15.210938 21.765625 -14.296875 C 21.765625 -13.367188 21.773438 -12.59375 21.796875 -11.96875 C 21.828125 -11.34375 21.851562 -10.769531 21.875 -10.25 C 21.90625 -9.726562 21.921875 -9.179688 21.921875 -8.609375 C 21.921875 -6.867188 21.609375 -5.320312 20.984375 -3.96875 C 20.359375 -2.625 19.316406 -1.5625 17.859375 -0.78125 C 16.398438 -0.0078125 14.445312 0.375 12 0.375 C 9.5 0.375 7.519531 -0.0625 6.0625 -0.9375 C 4.601562 -1.8125 3.566406 -2.9375 2.953125 -4.3125 C 2.347656 -5.6875 2.046875 -7.117188 2.046875 -8.609375 C 2.046875 -9.179688 2.054688 -9.726562 2.078125 -10.25 C 2.109375 -10.769531 2.144531 -11.34375 2.1875 -11.96875 C 2.226562 -12.59375 2.25 -13.367188 2.25 -14.296875 C 2.25 -15.210938 2.226562 -15.984375 2.1875 -16.609375 C 2.144531 -17.242188 2.109375 -17.816406 2.078125 -18.328125 C 2.054688 -18.847656 2.046875 -19.394531 2.046875 -19.96875 C 2.046875 -21.707031 2.363281 -23.25 3 -24.59375 C 3.632812 -25.945312 4.671875 -27.007812 6.109375 -27.78125 C 7.554688 -28.5625 9.519531 -28.953125 12 -28.953125 C 14.476562 -28.953125 16.445312 -28.515625 17.90625 -27.640625 C 19.363281 -26.765625 20.394531 -25.640625 21 -24.265625 C 21.613281 -22.890625 21.921875 -21.457031 21.921875 -19.96875 Z M 11.921875 -3.953125 C 12.984375 -3.953125 13.769531 -4.195312 14.28125 -4.6875 C 14.800781 -5.1875 15.132812 -5.796875 15.28125 -6.515625 C 15.4375 -7.234375 15.515625 -7.929688 15.515625 -8.609375 L 15.515625 -19.96875 C 15.515625 -20.207031 15.484375 -20.578125 15.421875 -21.078125 C 15.367188 -21.585938 15.238281 -22.113281 15.03125 -22.65625 C 14.832031 -23.195312 14.5 -23.660156 14.03125 -24.046875 C 13.570312 -24.429688 12.921875 -24.625 12.078125 -24.625 C 10.992188 -24.625 10.191406 -24.378906 9.671875 -23.890625 C 9.160156 -23.398438 8.835938 -22.789062 8.703125 -22.0625 C 8.566406 -21.34375 8.5 -20.644531 8.5 -19.96875 L 8.5 -8.609375 C 8.5 -8.367188 8.515625 -7.992188 8.546875 -7.484375 C 8.585938 -6.984375 8.710938 -6.460938 8.921875 -5.921875 C 9.128906 -5.378906 9.46875 -4.914062 9.9375 -4.53125 C 10.414062 -4.144531 11.078125 -3.953125 11.921875 -3.953125 Z M 11.921875 -3.953125 "/></g></g></g><g fill="#000000" fill-opacity="1"><g transform="translate(359.560054, 40.624088)"><g><path d="M 20.984375 0 L 15.796875 0 C 15.578125 0 15.382812 -0.078125 15.21875 -0.234375 C 15.0625 -0.398438 14.984375 -0.59375 14.984375 -0.8125 L 14.984375 -7.109375 C 14.984375 -7.734375 14.882812 -8.34375 14.6875 -8.9375 C 14.5 -9.539062 14.15625 -10.039062 13.65625 -10.4375 C 13.15625 -10.832031 12.453125 -11.03125 11.546875 -11.03125 L 9.015625 -11.03125 C 8.804688 -11.03125 8.617188 -10.945312 8.453125 -10.78125 C 8.285156 -10.613281 8.21875 -10.421875 8.25 -10.203125 C 8.25 -7.804688 8.269531 -5.816406 8.3125 -4.234375 C 8.351562 -2.660156 8.382812 -1.519531 8.40625 -0.8125 C 8.40625 -0.59375 8.332031 -0.398438 8.1875 -0.234375 C 8.039062 -0.078125 7.84375 0 7.59375 0 L 2.859375 0 C 2.609375 0 2.410156 -0.078125 2.265625 -0.234375 C 2.117188 -0.398438 2.046875 -0.59375 2.046875 -0.8125 C 2.066406 -1.707031 2.101562 -3.289062 2.15625 -5.5625 C 2.21875 -7.84375 2.25 -10.753906 2.25 -14.296875 C 2.25 -17.859375 2.21875 -20.769531 2.15625 -23.03125 C 2.101562 -25.289062 2.066406 -26.867188 2.046875 -27.765625 C 2.046875 -27.984375 2.117188 -28.171875 2.265625 -28.328125 C 2.410156 -28.492188 2.609375 -28.578125 2.859375 -28.578125 L 11.71875 -28.578125 C 13.050781 -28.578125 14.316406 -28.453125 15.515625 -28.203125 C 16.710938 -27.960938 17.773438 -27.53125 18.703125 -26.90625 C 19.628906 -26.28125 20.359375 -25.410156 20.890625 -24.296875 C 21.421875 -23.179688 21.6875 -21.75 21.6875 -20 C 21.6875 -18.394531 21.320312 -17.066406 20.59375 -16.015625 C 19.875 -14.972656 18.941406 -14.15625 17.796875 -13.5625 C 17.691406 -13.5 17.640625 -13.398438 17.640625 -13.265625 C 17.640625 -13.128906 17.707031 -13.019531 17.84375 -12.9375 C 18.875 -12.445312 19.726562 -11.734375 20.40625 -10.796875 C 21.09375 -9.859375 21.4375 -8.628906 21.4375 -7.109375 C 21.4375 -5.640625 21.476562 -4.378906 21.5625 -3.328125 C 21.644531 -2.273438 21.722656 -1.460938 21.796875 -0.890625 C 21.828125 -0.648438 21.757812 -0.441406 21.59375 -0.265625 C 21.4375 -0.0859375 21.234375 0 20.984375 0 Z M 11.796875 -24.25 L 9.109375 -24.25 C 8.890625 -24.25 8.695312 -24.171875 8.53125 -24.015625 C 8.363281 -23.867188 8.28125 -23.6875 8.28125 -23.46875 C 8.28125 -22.488281 8.265625 -21.394531 8.234375 -20.1875 C 8.210938 -18.976562 8.203125 -17.640625 8.203125 -16.171875 C 8.203125 -15.921875 8.285156 -15.71875 8.453125 -15.5625 C 8.617188 -15.414062 8.804688 -15.34375 9.015625 -15.34375 L 11.796875 -15.34375 C 12.691406 -15.34375 13.390625 -15.601562 13.890625 -16.125 C 14.398438 -16.644531 14.75 -17.265625 14.9375 -17.984375 C 15.132812 -18.703125 15.234375 -19.375 15.234375 -20 C 15.234375 -21.09375 15.035156 -21.941406 14.640625 -22.546875 C 14.242188 -23.160156 13.78125 -23.597656 13.25 -23.859375 C 12.71875 -24.117188 12.234375 -24.25 11.796875 -24.25 Z M 11.796875 -24.25 "/></g></g></g><g fill="#000000" fill-opacity="1"><g transform="translate(383.398138, 40.624088)"><g><path d="M 8.40625 -0.8125 C 8.40625 -0.59375 8.332031 -0.398438 8.1875 -0.234375 C 8.039062 -0.078125 7.84375 0 7.59375 0 L 2.859375 0 C 2.609375 0 2.410156 -0.078125 2.265625 -0.234375 C 2.117188 -0.398438 2.046875 -0.59375 2.046875 -0.8125 C 2.066406 -1.707031 2.101562 -3.289062 2.15625 -5.5625 C 2.21875 -7.84375 2.25 -10.753906 2.25 -14.296875 C 2.25 -17.859375 2.21875 -20.769531 2.15625 -23.03125 C 2.101562 -25.289062 2.066406 -26.867188 2.046875 -27.765625 C 2.046875 -27.984375 2.117188 -28.171875 2.265625 -28.328125 C 2.410156 -28.492188 2.609375 -28.578125 2.859375 -28.578125 L 7.59375 -28.578125 C 7.84375 -28.578125 8.039062 -28.492188 8.1875 -28.328125 C 8.332031 -28.171875 8.40625 -27.984375 8.40625 -27.765625 C 8.382812 -26.867188 8.34375 -25.289062 8.28125 -23.03125 C 8.226562 -20.769531 8.203125 -17.859375 8.203125 -14.296875 C 8.203125 -10.753906 8.226562 -7.84375 8.28125 -5.5625 C 8.34375 -3.289062 8.382812 -1.707031 8.40625 -0.8125 Z M 8.40625 -0.8125 "/></g></g></g><g fill="#000000" fill-opacity="1"><g transform="translate(393.847707, 40.624088)"><g><path d="M 22 -25.0625 C 22 -24.84375 21.914062 -24.648438 21.75 -24.484375 C 21.59375 -24.328125 21.40625 -24.25 21.1875 -24.25 L 15.875 -24.25 C 15.664062 -24.25 15.484375 -24.171875 15.328125 -24.015625 C 15.179688 -23.867188 15.109375 -23.6875 15.109375 -23.46875 C 15.078125 -22.300781 15.054688 -20.953125 15.046875 -19.421875 C 15.035156 -17.898438 15.03125 -16.191406 15.03125 -14.296875 C 15.03125 -10.753906 15.046875 -7.84375 15.078125 -5.5625 C 15.117188 -3.289062 15.15625 -1.707031 15.1875 -0.8125 C 15.21875 -0.59375 15.148438 -0.398438 14.984375 -0.234375 C 14.816406 -0.078125 14.625 0 14.40625 0 L 9.640625 0 C 9.421875 0 9.226562 -0.078125 9.0625 -0.234375 C 8.894531 -0.398438 8.8125 -0.59375 8.8125 -0.8125 C 8.875 -1.707031 8.921875 -3.289062 8.953125 -5.5625 C 8.992188 -7.84375 9.015625 -10.753906 9.015625 -14.296875 C 9.015625 -16.191406 9.007812 -17.898438 9 -19.421875 C 8.988281 -20.953125 8.96875 -22.300781 8.9375 -23.46875 C 8.9375 -23.6875 8.863281 -23.867188 8.71875 -24.015625 C 8.570312 -24.171875 8.375 -24.25 8.125 -24.25 L 2.859375 -24.25 C 2.640625 -24.25 2.445312 -24.328125 2.28125 -24.484375 C 2.125 -24.648438 2.046875 -24.84375 2.046875 -25.0625 L 2.046875 -27.765625 C 2.046875 -27.984375 2.125 -28.171875 2.28125 -28.328125 C 2.445312 -28.492188 2.640625 -28.578125 2.859375 -28.578125 L 21.1875 -28.578125 C 21.40625 -28.578125 21.59375 -28.492188 21.75 -28.328125 C 21.914062 -28.171875 22 -27.984375 22 -27.765625 Z M 22 -25.0625 "/></g></g></g><g fill="#000000" fill-opacity="1"><g transform="translate(417.889891, 40.624088)"><g><path d="M 20.578125 -25.0625 C 20.578125 -24.84375 20.5 -24.648438 20.34375 -24.484375 C 20.195312 -24.328125 20.003906 -24.25 19.765625 -24.25 L 9.109375 -24.25 C 8.890625 -24.25 8.695312 -24.171875 8.53125 -24.015625 C 8.363281 -23.867188 8.28125 -23.6875 8.28125 -23.46875 C 8.28125 -22.625 8.273438 -21.6875 8.265625 -20.65625 C 8.253906 -19.625 8.234375 -18.492188 8.203125 -17.265625 C 8.203125 -17.046875 8.285156 -16.851562 8.453125 -16.6875 C 8.617188 -16.53125 8.804688 -16.453125 9.015625 -16.453125 L 17.640625 -16.453125 C 17.859375 -16.453125 18.046875 -16.367188 18.203125 -16.203125 C 18.367188 -16.046875 18.453125 -15.859375 18.453125 -15.640625 L 18.453125 -12.9375 C 18.453125 -12.71875 18.367188 -12.523438 18.203125 -12.359375 C 18.046875 -12.203125 17.859375 -12.125 17.640625 -12.125 L 9.015625 -12.125 C 8.804688 -12.125 8.617188 -12.039062 8.453125 -11.875 C 8.285156 -11.71875 8.203125 -11.53125 8.203125 -11.3125 C 8.234375 -10.082031 8.253906 -8.953125 8.265625 -7.921875 C 8.273438 -6.890625 8.28125 -5.953125 8.28125 -5.109375 C 8.28125 -4.890625 8.363281 -4.703125 8.53125 -4.546875 C 8.695312 -4.398438 8.890625 -4.328125 9.109375 -4.328125 L 19.765625 -4.328125 C 20.003906 -4.328125 20.195312 -4.242188 20.34375 -4.078125 C 20.5 -3.921875 20.578125 -3.734375 20.578125 -3.515625 L 20.578125 -0.8125 C 20.578125 -0.59375 20.5 -0.398438 20.34375 -0.234375 C 20.195312 -0.078125 20.003906 0 19.765625 0 L 2.859375 0 C 2.609375 0 2.410156 -0.078125 2.265625 -0.234375 C 2.117188 -0.398438 2.046875 -0.59375 2.046875 -0.8125 C 2.066406 -1.707031 2.101562 -3.289062 2.15625 -5.5625 C 2.21875 -7.84375 2.25 -10.753906 2.25 -14.296875 C 2.25 -17.859375 2.21875 -20.769531 2.15625 -23.03125 C 2.101562 -25.289062 2.066406 -26.867188 2.046875 -27.765625 C 2.046875 -27.984375 2.117188 -28.171875 2.265625 -28.328125 C 2.410156 -28.492188 2.609375 -28.578125 2.859375 -28.578125 L 19.765625 -28.578125 C 20.003906 -28.578125 20.195312 -28.492188 20.34375 -28.328125 C 20.5 -28.171875 20.578125 -27.984375 20.578125 -27.765625 Z M 20.578125 -25.0625 "/></g></g></g><g fill="#000000" fill-opacity="1"><g transform="translate(440.54423, 40.624088)"><g/></g></g><g fill="#000000" fill-opacity="1"><g transform="translate(452.708183, 40.624088)"><g><path d="M 8.125 -5.140625 C 8.125 -4.921875 8.195312 -4.726562 8.34375 -4.5625 C 8.5 -4.40625 8.6875 -4.328125 8.90625 -4.328125 L 16.859375 -4.328125 C 17.078125 -4.328125 17.265625 -4.242188 17.421875 -4.078125 C 17.585938 -3.921875 17.671875 -3.734375 17.671875 -3.515625 L 17.671875 -0.8125 C 17.671875 -0.59375 17.585938 -0.398438 17.421875 -0.234375 C 17.265625 -0.078125 17.078125 0 16.859375 0 L 2.859375 0 C 2.640625 0 2.445312 -0.078125 2.28125 -0.234375 C 2.125 -0.398438 2.046875 -0.59375 2.046875 -0.8125 L 2.046875 -27.765625 C 2.046875 -27.984375 2.125 -28.171875 2.28125 -28.328125 C 2.445312 -28.492188 2.640625 -28.578125 2.859375 -28.578125 L 7.640625 -28.578125 C 7.878906 -28.578125 8.070312 -28.492188 8.21875 -28.328125 C 8.375 -28.171875 8.453125 -27.984375 8.453125 -27.765625 C 8.453125 -27.023438 8.429688 -25.875 8.390625 -24.3125 C 8.347656 -22.75 8.3125 -20.914062 8.28125 -18.8125 C 8.257812 -16.71875 8.226562 -14.492188 8.1875 -12.140625 C 8.144531 -9.785156 8.125 -7.453125 8.125 -5.140625 Z M 8.125 -5.140625 "/></g></g></g><g fill="#000000" fill-opacity="1"><g transform="translate(472.219475, 40.624088)"><g><path d="M 20.578125 -25.0625 C 20.578125 -24.84375 20.5 -24.648438 20.34375 -24.484375 C 20.195312 -24.328125 20.003906 -24.25 19.765625 -24.25 L 9.109375 -24.25 C 8.890625 -24.25 8.695312 -24.171875 8.53125 -24.015625 C 8.363281 -23.867188 8.28125 -23.6875 8.28125 -23.46875 C 8.28125 -22.625 8.273438 -21.6875 8.265625 -20.65625 C 8.253906 -19.625 8.234375 -18.492188 8.203125 -17.265625 C 8.203125 -17.046875 8.285156 -16.851562 8.453125 -16.6875 C 8.617188 -16.53125 8.804688 -16.453125 9.015625 -16.453125 L 17.640625 -16.453125 C 17.859375 -16.453125 18.046875 -16.367188 18.203125 -16.203125 C 18.367188 -16.046875 18.453125 -15.859375 18.453125 -15.640625 L 18.453125 -12.9375 C 18.453125 -12.71875 18.367188 -12.523438 18.203125 -12.359375 C 18.046875 -12.203125 17.859375 -12.125 17.640625 -12.125 L 9.015625 -12.125 C 8.804688 -12.125 8.617188 -12.039062 8.453125 -11.875 C 8.285156 -11.71875 8.203125 -11.53125 8.203125 -11.3125 C 8.234375 -10.082031 8.253906 -8.953125 8.265625 -7.921875 C 8.273438 -6.890625 8.28125 -5.953125 8.28125 -5.109375 C 8.28125 -4.890625 8.363281 -4.703125 8.53125 -4.546875 C 8.695312 -4.398438 8.890625 -4.328125 9.109375 -4.328125 L 19.765625 -4.328125 C 20.003906 -4.328125 20.195312 -4.242188 20.34375 -4.078125 C 20.5 -3.921875 20.578125 -3.734375 20.578125 -3.515625 L 20.578125 -0.8125 C 20.578125 -0.59375 20.5 -0.398438 20.34375 -0.234375 C 20.195312 -0.078125 20.003906 0 19.765625 0 L 2.859375 0 C 2.609375 0 2.410156 -0.078125 2.265625 -0.234375 C 2.117188 -0.398438 2.046875 -0.59375 2.046875 -0.8125 C 2.066406 -1.707031 2.101562 -3.289062 2.15625 -5.5625 C 2.21875 -7.84375 2.25 -10.753906 2.25 -14.296875 C 2.25 -17.859375 2.21875 -20.769531 2.15625 -23.03125 C 2.101562 -25.289062 2.066406 -26.867188 2.046875 -27.765625 C 2.046875 -27.984375 2.117188 -28.171875 2.265625 -28.328125 C 2.410156 -28.492188 2.609375 -28.578125 2.859375 -28.578125 L 19.765625 -28.578125 C 20.003906 -28.578125 20.195312 -28.492188 20.34375 -28.328125 C 20.5 -28.171875 20.578125 -27.984375 20.578125 -27.765625 Z M 20.578125 -25.0625 "/></g></g></g><g fill="#000000" fill-opacity="1"><g transform="translate(494.873814, 40.624088)"><g><path d="M 12.046875 -14.296875 C 12.046875 -14.503906 12.117188 -14.691406 12.265625 -14.859375 C 12.421875 -15.023438 12.601562 -15.109375 12.8125 -15.109375 L 21.15625 -15.109375 C 21.363281 -15.109375 21.539062 -15.023438 21.6875 -14.859375 C 21.84375 -14.691406 21.921875 -14.503906 21.921875 -14.296875 L 21.921875 -8.609375 C 21.921875 -6.867188 21.609375 -5.320312 20.984375 -3.96875 C 20.359375 -2.625 19.316406 -1.5625 17.859375 -0.78125 C 16.398438 -0.0078125 14.445312 0.375 12 0.375 C 9.5 0.375 7.519531 -0.0625 6.0625 -0.9375 C 4.601562 -1.8125 3.566406 -2.9375 2.953125 -4.3125 C 2.347656 -5.6875 2.046875 -7.117188 2.046875 -8.609375 C 2.046875 -9.179688 2.054688 -9.726562 2.078125 -10.25 C 2.109375 -10.769531 2.144531 -11.34375 2.1875 -11.96875 C 2.226562 -12.59375 2.25 -13.367188 2.25 -14.296875 C 2.25 -15.210938 2.226562 -15.984375 2.1875 -16.609375 C 2.144531 -17.242188 2.109375 -17.816406 2.078125 -18.328125 C 2.054688 -18.847656 2.046875 -19.394531 2.046875 -19.96875 C 2.046875 -21.707031 2.363281 -23.25 3 -24.59375 C 3.632812 -25.945312 4.671875 -27.007812 6.109375 -27.78125 C 7.554688 -28.5625 9.519531 -28.953125 12 -28.953125 C 14.3125 -28.953125 16.175781 -28.5625 17.59375 -27.78125 C 19.007812 -27.007812 20.054688 -26.007812 20.734375 -24.78125 C 21.421875 -23.5625 21.816406 -22.253906 21.921875 -20.859375 C 21.921875 -20.617188 21.84375 -20.410156 21.6875 -20.234375 C 21.539062 -20.054688 21.347656 -19.96875 21.109375 -19.96875 L 16.296875 -19.96875 C 15.804688 -19.96875 15.53125 -20.222656 15.46875 -20.734375 C 15.445312 -21.203125 15.347656 -21.738281 15.171875 -22.34375 C 14.992188 -22.957031 14.664062 -23.488281 14.1875 -23.9375 C 13.707031 -24.394531 13.003906 -24.625 12.078125 -24.625 C 10.992188 -24.625 10.191406 -24.378906 9.671875 -23.890625 C 9.160156 -23.398438 8.835938 -22.789062 8.703125 -22.0625 C 8.566406 -21.34375 8.5 -20.644531 8.5 -19.96875 L 8.5 -8.609375 C 8.5 -8.367188 8.515625 -7.992188 8.546875 -7.484375 C 8.585938 -6.984375 8.710938 -6.460938 8.921875 -5.921875 C 9.128906 -5.378906 9.46875 -4.914062 9.9375 -4.53125 C 10.414062 -4.144531 11.078125 -3.953125 11.921875 -3.953125 C 12.984375 -3.953125 13.800781 -4.195312 14.375 -4.6875 C 14.945312 -5.1875 15.328125 -5.796875 15.515625 -6.515625 C 15.703125 -7.234375 15.796875 -7.929688 15.796875 -8.609375 C 15.796875 -9.046875 15.796875 -9.507812 15.796875 -10 C 15.773438 -10.21875 15.6875 -10.398438 15.53125 -10.546875 C 15.382812 -10.703125 15.203125 -10.78125 14.984375 -10.78125 L 12.8125 -10.78125 C 12.601562 -10.78125 12.421875 -10.851562 12.265625 -11 C 12.117188 -11.15625 12.046875 -11.351562 12.046875 -11.59375 Z M 12.046875 -14.296875 "/></g></g></g><g fill="#000000" fill-opacity="1"><g transform="translate(518.875181, 40.624088)"><g><path d="M 20.578125 -25.0625 C 20.578125 -24.84375 20.5 -24.648438 20.34375 -24.484375 C 20.195312 -24.328125 20.003906 -24.25 19.765625 -24.25 L 9.109375 -24.25 C 8.890625 -24.25 8.695312 -24.171875 8.53125 -24.015625 C 8.363281 -23.867188 8.28125 -23.6875 8.28125 -23.46875 C 8.28125 -22.625 8.273438 -21.6875 8.265625 -20.65625 C 8.253906 -19.625 8.234375 -18.492188 8.203125 -17.265625 C 8.203125 -17.046875 8.285156 -16.851562 8.453125 -16.6875 C 8.617188 -16.53125 8.804688 -16.453125 9.015625 -16.453125 L 17.640625 -16.453125 C 17.859375 -16.453125 18.046875 -16.367188 18.203125 -16.203125 C 18.367188 -16.046875 18.453125 -15.859375 18.453125 -15.640625 L 18.453125 -12.9375 C 18.453125 -12.71875 18.367188 -12.523438 18.203125 -12.359375 C 18.046875 -12.203125 17.859375 -12.125 17.640625 -12.125 L 9.015625 -12.125 C 8.804688 -12.125 8.617188 -12.039062 8.453125 -11.875 C 8.285156 -11.71875 8.203125 -11.53125 8.203125 -11.3125 C 8.234375 -10.082031 8.253906 -8.953125 8.265625 -7.921875 C 8.273438 -6.890625 8.28125 -5.953125 8.28125 -5.109375 C 8.28125 -4.890625 8.363281 -4.703125 8.53125 -4.546875 C 8.695312 -4.398438 8.890625 -4.328125 9.109375 -4.328125 L 19.765625 -4.328125 C 20.003906 -4.328125 20.195312 -4.242188 20.34375 -4.078125 C 20.5 -3.921875 20.578125 -3.734375 20.578125 -3.515625 L 20.578125 -0.8125 C 20.578125 -0.59375 20.5 -0.398438 20.34375 -0.234375 C 20.195312 -0.078125 20.003906 0 19.765625 0 L 2.859375 0 C 2.609375 0 2.410156 -0.078125 2.265625 -0.234375 C 2.117188 -0.398438 2.046875 -0.59375 2.046875 -0.8125 C 2.066406 -1.707031 2.101562 -3.289062 2.15625 -5.5625 C 2.21875 -7.84375 2.25 -10.753906 2.25 -14.296875 C 2.25 -17.859375 2.21875 -20.769531 2.15625 -23.03125 C 2.101562 -25.289062 2.066406 -26.867188 2.046875 -27.765625 C 2.046875 -27.984375 2.117188 -28.171875 2.265625 -28.328125 C 2.410156 -28.492188 2.609375 -28.578125 2.859375 -28.578125 L 19.765625 -28.578125 C 20.003906 -28.578125 20.195312 -28.492188 20.34375 -28.328125 C 20.5 -28.171875 20.578125 -27.984375 20.578125 -27.765625 Z M 20.578125 -25.0625 "/></g></g></g><g fill="#000000" fill-opacity="1"><g transform="translate(541.52952, 40.624088)"><g><path d="M 22.171875 -14.296875 C 22.171875 -10.753906 22.191406 -7.84375 22.234375 -5.5625 C 22.273438 -3.289062 22.320312 -1.707031 22.375 -0.8125 C 22.375 -0.59375 22.289062 -0.398438 22.125 -0.234375 C 21.96875 -0.078125 21.78125 0 21.5625 0 L 12.984375 0 C 12.492188 0 12.222656 -0.226562 12.171875 -0.6875 C 12.054688 -1.53125 11.816406 -3.09375 11.453125 -5.375 C 11.085938 -7.664062 10.59375 -10.640625 9.96875 -14.296875 C 9.769531 -15.347656 9.582031 -16.34375 9.40625 -17.28125 C 9.226562 -18.226562 9.0625 -19.109375 8.90625 -19.921875 C 8.875 -20.140625 8.753906 -20.234375 8.546875 -20.203125 C 8.347656 -20.179688 8.25 -20.078125 8.25 -19.890625 C 8.25 -19.066406 8.238281 -18.191406 8.21875 -17.265625 C 8.207031 -16.335938 8.203125 -15.347656 8.203125 -14.296875 C 8.203125 -10.753906 8.226562 -7.84375 8.28125 -5.5625 C 8.34375 -3.289062 8.382812 -1.707031 8.40625 -0.8125 C 8.40625 -0.59375 8.332031 -0.398438 8.1875 -0.234375 C 8.039062 -0.078125 7.84375 0 7.59375 0 L 2.859375 0 C 2.609375 0 2.410156 -0.078125 2.265625 -0.234375 C 2.117188 -0.398438 2.046875 -0.59375 2.046875 -0.8125 C 2.066406 -1.707031 2.101562 -3.289062 2.15625 -5.5625 C 2.21875 -7.84375 2.25 -10.753906 2.25 -14.296875 C 2.25 -17.859375 2.21875 -20.769531 2.15625 -23.03125 C 2.101562 -25.289062 2.066406 -26.867188 2.046875 -27.765625 C 2.046875 -27.984375 2.117188 -28.171875 2.265625 -28.328125 C 2.410156 -28.492188 2.609375 -28.578125 2.859375 -28.578125 L 11.4375 -28.578125 C 11.894531 -28.578125 12.164062 -28.347656 12.25 -27.890625 C 12.351562 -27.066406 12.582031 -25.503906 12.9375 -23.203125 C 13.289062 -20.910156 13.796875 -17.941406 14.453125 -14.296875 C 14.640625 -13.253906 14.820312 -12.253906 15 -11.296875 C 15.175781 -10.347656 15.332031 -9.46875 15.46875 -8.65625 C 15.53125 -8.4375 15.660156 -8.335938 15.859375 -8.359375 C 16.066406 -8.390625 16.171875 -8.503906 16.171875 -8.703125 C 16.171875 -9.515625 16.175781 -10.390625 16.1875 -11.328125 C 16.195312 -12.265625 16.203125 -13.253906 16.203125 -14.296875 C 16.203125 -17.859375 16.175781 -20.769531 16.125 -23.03125 C 16.070312 -25.289062 16.03125 -26.867188 16 -27.765625 C 15.976562 -27.984375 16.046875 -28.171875 16.203125 -28.328125 C 16.367188 -28.492188 16.5625 -28.578125 16.78125 -28.578125 L 21.5625 -28.578125 C 21.78125 -28.578125 21.96875 -28.492188 22.125 -28.328125 C 22.289062 -28.171875 22.375 -27.984375 22.375 -27.765625 C 22.320312 -26.867188 22.273438 -25.289062 22.234375 -23.03125 C 22.191406 -20.769531 22.171875 -17.859375 22.171875 -14.296875 Z M 22.171875 -14.296875 "/></g></g></g><g fill="#000000" fill-opacity="1"><g transform="translate(565.93906, 40.624088)"><g><path d="M 21.921875 -19.640625 C 21.921875 -18.816406 21.882812 -18.035156 21.8125 -17.296875 C 21.75 -16.566406 21.71875 -15.535156 21.71875 -14.203125 C 21.71875 -13.273438 21.738281 -12.5 21.78125 -11.875 C 21.820312 -11.25 21.851562 -10.675781 21.875 -10.15625 C 21.90625 -9.644531 21.921875 -9.101562 21.921875 -8.53125 C 21.921875 -6.789062 21.597656 -5.285156 20.953125 -4.015625 C 20.316406 -2.753906 19.273438 -1.769531 17.828125 -1.0625 C 16.390625 -0.351562 14.4375 0 11.96875 0 L 2.859375 0 C 2.609375 0 2.410156 -0.078125 2.265625 -0.234375 C 2.117188 -0.398438 2.046875 -0.59375 2.046875 -0.8125 C 2.066406 -1.707031 2.101562 -3.289062 2.15625 -5.5625 C 2.21875 -7.84375 2.25 -10.753906 2.25 -14.296875 C 2.25 -17.859375 2.21875 -20.769531 2.15625 -23.03125 C 2.101562 -25.289062 2.066406 -26.867188 2.046875 -27.765625 C 2.046875 -27.984375 2.117188 -28.171875 2.265625 -28.328125 C 2.410156 -28.492188 2.609375 -28.578125 2.859375 -28.578125 L 11.96875 -28.578125 C 14.414062 -28.578125 16.359375 -28.15625 17.796875 -27.3125 C 19.242188 -26.46875 20.28125 -25.382812 20.90625 -24.0625 C 21.53125 -22.75 21.867188 -21.359375 21.921875 -19.890625 C 21.921875 -19.828125 21.921875 -19.753906 21.921875 -19.671875 C 21.921875 -19.648438 21.921875 -19.640625 21.921875 -19.640625 Z M 11.875 -4.328125 C 12.96875 -4.328125 13.769531 -4.535156 14.28125 -4.953125 C 14.800781 -5.378906 15.128906 -5.910156 15.265625 -6.546875 C 15.398438 -7.191406 15.46875 -7.851562 15.46875 -8.53125 L 15.46875 -19.640625 C 15.46875 -19.859375 15.445312 -20.21875 15.40625 -20.71875 C 15.363281 -21.21875 15.238281 -21.738281 15.03125 -22.28125 C 14.832031 -22.832031 14.492188 -23.296875 14.015625 -23.671875 C 13.546875 -24.054688 12.890625 -24.25 12.046875 -24.25 L 9.109375 -24.25 C 8.890625 -24.25 8.695312 -24.171875 8.53125 -24.015625 C 8.363281 -23.867188 8.28125 -23.6875 8.28125 -23.46875 C 8.257812 -22.300781 8.238281 -20.953125 8.21875 -19.421875 C 8.207031 -17.898438 8.203125 -16.191406 8.203125 -14.296875 C 8.203125 -12.410156 8.207031 -10.695312 8.21875 -9.15625 C 8.238281 -7.625 8.257812 -6.273438 8.28125 -5.109375 C 8.28125 -4.890625 8.363281 -4.703125 8.53125 -4.546875 C 8.695312 -4.398438 8.890625 -4.328125 9.109375 -4.328125 Z M 11.875 -4.328125 "/></g></g></g><g fill="#000000" fill-opacity="1"><g transform="translate(589.89961, 40.624088)"><g><path d="M 8.609375 -5.265625 L 8.734375 -0.8125 C 8.734375 -0.59375 8.648438 -0.398438 8.484375 -0.234375 C 8.328125 -0.078125 8.140625 0 7.921875 0 L 2.859375 0 C 2.609375 0 2.410156 -0.078125 2.265625 -0.234375 C 2.117188 -0.398438 2.046875 -0.59375 2.046875 -0.8125 L 2.15625 -5.265625 C 2.15625 -5.484375 2.226562 -5.671875 2.375 -5.828125 C 2.53125 -5.992188 2.71875 -6.078125 2.9375 -6.078125 L 7.796875 -6.078125 C 8.015625 -6.078125 8.203125 -5.992188 8.359375 -5.828125 C 8.523438 -5.671875 8.609375 -5.484375 8.609375 -5.265625 Z M 8.609375 -5.265625 "/></g></g></g><g fill="#000000" fill-opacity="1"><g transform="translate(600.675716, 40.624088)"><g><path d="M 8.609375 -5.265625 L 8.734375 -0.8125 C 8.734375 -0.59375 8.648438 -0.398438 8.484375 -0.234375 C 8.328125 -0.078125 8.140625 0 7.921875 0 L 2.859375 0 C 2.609375 0 2.410156 -0.078125 2.265625 -0.234375 C 2.117188 -0.398438 2.046875 -0.59375 2.046875 -0.8125 L 2.15625 -5.265625 C 2.15625 -5.484375 2.226562 -5.671875 2.375 -5.828125 C 2.53125 -5.992188 2.71875 -6.078125 2.9375 -6.078125 L 7.796875 -6.078125 C 8.015625 -6.078125 8.203125 -5.992188 8.359375 -5.828125 C 8.523438 -5.671875 8.609375 -5.484375 8.609375 -5.265625 Z M 8.609375 -5.265625 "/></g></g></g><g fill="#000000" fill-opacity="1"><g transform="translate(611.451823, 40.624088)"><g><path d="M 11.96875 -28.953125 C 14.414062 -28.953125 16.363281 -28.625 17.8125 -27.96875 C 19.269531 -27.3125 20.316406 -26.363281 20.953125 -25.125 C 21.597656 -23.882812 21.921875 -22.394531 21.921875 -20.65625 C 21.921875 -19.238281 21.6875 -18.085938 21.21875 -17.203125 C 20.757812 -16.316406 20.179688 -15.582031 19.484375 -15 C 18.796875 -14.414062 18.097656 -13.890625 17.390625 -13.421875 C 16.679688 -12.960938 16.054688 -12.453125 15.515625 -11.890625 C 14.972656 -11.335938 14.644531 -10.628906 14.53125 -9.765625 C 14.445312 -9.265625 14.175781 -9.015625 13.71875 -9.015625 L 10 -9.015625 C 9.757812 -9.015625 9.5625 -9.101562 9.40625 -9.28125 C 9.257812 -9.457031 9.1875 -9.65625 9.1875 -9.875 C 9.269531 -11.070312 9.472656 -12.019531 9.796875 -12.71875 C 10.117188 -13.414062 10.519531 -13.957031 11 -14.34375 C 11.476562 -14.738281 11.972656 -15.085938 12.484375 -15.390625 C 13.003906 -15.691406 13.488281 -16.03125 13.9375 -16.40625 C 14.382812 -16.789062 14.75 -17.304688 15.03125 -17.953125 C 15.320312 -18.609375 15.46875 -19.507812 15.46875 -20.65625 C 15.46875 -21.34375 15.394531 -21.988281 15.25 -22.59375 C 15.101562 -23.207031 14.773438 -23.695312 14.265625 -24.0625 C 13.765625 -24.4375 12.96875 -24.625 11.875 -24.625 C 10.957031 -24.625 10.257812 -24.394531 9.78125 -23.9375 C 9.300781 -23.488281 8.972656 -22.960938 8.796875 -22.359375 C 8.617188 -21.765625 8.503906 -21.222656 8.453125 -20.734375 C 8.421875 -20.242188 8.160156 -20 7.671875 -20 L 2.859375 -20 C 2.609375 -20 2.398438 -20.085938 2.234375 -20.265625 C 2.078125 -20.441406 2.015625 -20.640625 2.046875 -20.859375 C 2.148438 -22.253906 2.535156 -23.566406 3.203125 -24.796875 C 3.867188 -26.035156 4.910156 -27.035156 6.328125 -27.796875 C 7.742188 -28.566406 9.625 -28.953125 11.96875 -28.953125 Z M 14.609375 -3.796875 L 15.03125 -3.796875 L 15.71875 -4.078125 L 15.71875 -2.8125 L 15.03125 -3.109375 L 14.609375 -3.109375 C 14.585938 -2.828125 14.519531 -2.582031 14.40625 -2.375 L 14.734375 -2.15625 L 15.515625 -2.046875 L 14.859375 -0.9375 L 14.40625 -1.546875 L 14.078125 -1.75 C 13.921875 -1.53125 13.734375 -1.34375 13.515625 -1.1875 L 13.71875 -0.859375 L 14.328125 -0.40625 L 13.234375 0.25 L 13.109375 -0.53125 L 12.90625 -0.859375 C 12.6875 -0.742188 12.441406 -0.675781 12.171875 -0.65625 L 12.171875 -0.25 L 12.453125 0.453125 L 11.1875 0.453125 L 11.46875 -0.25 L 11.46875 -0.65625 C 11.195312 -0.675781 10.953125 -0.742188 10.734375 -0.859375 L 10.53125 -0.53125 L 10.40625 0.25 L 9.3125 -0.40625 L 9.921875 -0.859375 L 10.125 -1.1875 C 9.90625 -1.34375 9.710938 -1.53125 9.546875 -1.75 L 9.234375 -1.546875 L 8.78125 -0.9375 L 8.125 -2.046875 L 8.859375 -2.15625 L 9.1875 -2.375 C 9.101562 -2.582031 9.046875 -2.828125 9.015625 -3.109375 L 8.609375 -3.109375 L 7.921875 -2.8125 L 7.921875 -4.078125 L 8.609375 -3.796875 L 9.015625 -3.796875 C 9.046875 -4.066406 9.101562 -4.328125 9.1875 -4.578125 L 8.859375 -4.734375 L 8.125 -4.859375 L 8.78125 -5.953125 L 9.234375 -5.34375 L 9.546875 -5.140625 C 9.710938 -5.359375 9.90625 -5.550781 10.125 -5.71875 L 9.921875 -6.046875 L 9.3125 -6.484375 L 10.40625 -7.140625 L 10.53125 -6.375 L 10.734375 -6.078125 C 10.953125 -6.160156 11.195312 -6.21875 11.46875 -6.25 L 11.46875 -6.65625 L 11.1875 -7.34375 L 12.453125 -7.34375 L 12.171875 -6.65625 L 12.171875 -6.25 C 12.441406 -6.21875 12.6875 -6.160156 12.90625 -6.078125 L 13.109375 -6.375 L 13.234375 -7.140625 L 14.328125 -6.484375 L 13.71875 -6.046875 L 13.515625 -5.71875 C 13.734375 -5.550781 13.921875 -5.359375 14.078125 -5.140625 L 14.40625 -5.34375 L 14.859375 -5.953125 L 15.515625 -4.859375 L 14.734375 -4.734375 L 14.40625 -4.53125 C 14.519531 -4.3125 14.585938 -4.066406 14.609375 -3.796875 Z M 14.609375 -3.796875 "/></g></g></g><g fill="#000000" fill-opacity="1"><g transform="translate(198.680282, 84.680769)"><g><path d="M 9.046875 -21.5625 C 10.941406 -21.5625 12.429688 -21.285156 13.515625 -20.734375 C 14.609375 -20.191406 15.390625 -19.414062 15.859375 -18.40625 C 16.328125 -17.40625 16.5625 -16.207031 16.5625 -14.8125 C 16.5625 -13.394531 16.328125 -12.203125 15.859375 -11.234375 C 15.390625 -10.273438 14.609375 -9.546875 13.515625 -9.046875 C 12.429688 -8.554688 10.941406 -8.3125 9.046875 -8.3125 L 6.8125 -8.3125 C 6.644531 -8.3125 6.5 -8.25 6.375 -8.125 C 6.25 -8.007812 6.195312 -7.867188 6.21875 -7.703125 C 6.21875 -5.890625 6.234375 -4.390625 6.265625 -3.203125 C 6.296875 -2.015625 6.320312 -1.148438 6.34375 -0.609375 C 6.34375 -0.453125 6.285156 -0.3125 6.171875 -0.1875 C 6.054688 -0.0625 5.910156 0 5.734375 0 L 2.15625 0 C 1.96875 0 1.816406 -0.0625 1.703125 -0.1875 C 1.597656 -0.3125 1.546875 -0.453125 1.546875 -0.609375 C 1.566406 -1.285156 1.59375 -2.484375 1.625 -4.203125 C 1.664062 -5.921875 1.6875 -8.113281 1.6875 -10.78125 C 1.6875 -13.46875 1.664062 -15.660156 1.625 -17.359375 C 1.59375 -19.066406 1.566406 -20.257812 1.546875 -20.9375 C 1.546875 -21.101562 1.597656 -21.25 1.703125 -21.375 C 1.816406 -21.5 1.96875 -21.5625 2.15625 -21.5625 Z M 9.109375 -11.578125 C 9.953125 -11.578125 10.554688 -11.742188 10.921875 -12.078125 C 11.296875 -12.421875 11.519531 -12.84375 11.59375 -13.34375 C 11.664062 -13.851562 11.703125 -14.34375 11.703125 -14.8125 C 11.703125 -15.257812 11.664062 -15.753906 11.59375 -16.296875 C 11.519531 -16.847656 11.296875 -17.316406 10.921875 -17.703125 C 10.554688 -18.097656 9.953125 -18.296875 9.109375 -18.296875 L 6.875 -18.296875 C 6.707031 -18.296875 6.5625 -18.238281 6.4375 -18.125 C 6.3125 -18.007812 6.25 -17.867188 6.25 -17.703125 C 6.25 -16.960938 6.238281 -16.132812 6.21875 -15.21875 C 6.195312 -14.3125 6.1875 -13.304688 6.1875 -12.203125 C 6.1875 -12.015625 6.25 -11.863281 6.375 -11.75 C 6.5 -11.632812 6.644531 -11.578125 6.8125 -11.578125 Z M 9.109375 -11.578125 "/></g></g></g><g fill="#000000" fill-opacity="1"><g transform="translate(216.79074, 84.680769)"><g><path d="M 15.828125 0 L 11.921875 0 C 11.753906 0 11.609375 -0.0625 11.484375 -0.1875 C 11.359375 -0.3125 11.296875 -0.453125 11.296875 -0.609375 L 11.296875 -5.359375 C 11.296875 -5.828125 11.222656 -6.285156 11.078125 -6.734375 C 10.941406 -7.191406 10.679688 -7.566406 10.296875 -7.859375 C 9.921875 -8.160156 9.394531 -8.3125 8.71875 -8.3125 L 6.8125 -8.3125 C 6.644531 -8.3125 6.5 -8.25 6.375 -8.125 C 6.25 -8.007812 6.195312 -7.867188 6.21875 -7.703125 C 6.21875 -5.890625 6.234375 -4.390625 6.265625 -3.203125 C 6.296875 -2.015625 6.320312 -1.148438 6.34375 -0.609375 C 6.34375 -0.453125 6.285156 -0.3125 6.171875 -0.1875 C 6.054688 -0.0625 5.910156 0 5.734375 0 L 2.15625 0 C 1.96875 0 1.816406 -0.0625 1.703125 -0.1875 C 1.597656 -0.3125 1.546875 -0.453125 1.546875 -0.609375 C 1.566406 -1.285156 1.59375 -2.484375 1.625 -4.203125 C 1.664062 -5.921875 1.6875 -8.113281 1.6875 -10.78125 C 1.6875 -13.46875 1.664062 -15.660156 1.625 -17.359375 C 1.59375 -19.066406 1.566406 -20.257812 1.546875 -20.9375 C 1.546875 -21.101562 1.597656 -21.25 1.703125 -21.375 C 1.816406 -21.5 1.96875 -21.5625 2.15625 -21.5625 L 8.84375 -21.5625 C 9.84375 -21.5625 10.796875 -21.46875 11.703125 -21.28125 C 12.609375 -21.09375 13.410156 -20.765625 14.109375 -20.296875 C 14.804688 -19.828125 15.351562 -19.171875 15.75 -18.328125 C 16.15625 -17.484375 16.359375 -16.40625 16.359375 -15.09375 C 16.359375 -13.875 16.082031 -12.867188 15.53125 -12.078125 C 14.988281 -11.296875 14.285156 -10.675781 13.421875 -10.21875 C 13.335938 -10.175781 13.296875 -10.101562 13.296875 -10 C 13.296875 -9.90625 13.347656 -9.828125 13.453125 -9.765625 C 14.234375 -9.390625 14.878906 -8.847656 15.390625 -8.140625 C 15.910156 -7.429688 16.171875 -6.503906 16.171875 -5.359375 C 16.171875 -4.253906 16.203125 -3.304688 16.265625 -2.515625 C 16.328125 -1.722656 16.390625 -1.109375 16.453125 -0.671875 C 16.460938 -0.492188 16.40625 -0.335938 16.28125 -0.203125 C 16.164062 -0.0664062 16.015625 0 15.828125 0 Z M 8.90625 -18.296875 L 6.875 -18.296875 C 6.707031 -18.296875 6.5625 -18.238281 6.4375 -18.125 C 6.3125 -18.007812 6.25 -17.867188 6.25 -17.703125 C 6.25 -16.960938 6.238281 -16.132812 6.21875 -15.21875 C 6.195312 -14.3125 6.1875 -13.304688 6.1875 -12.203125 C 6.1875 -12.015625 6.25 -11.863281 6.375 -11.75 C 6.5 -11.632812 6.644531 -11.578125 6.8125 -11.578125 L 8.90625 -11.578125 C 9.582031 -11.578125 10.109375 -11.769531 10.484375 -12.15625 C 10.867188 -12.550781 11.128906 -13.019531 11.265625 -13.5625 C 11.410156 -14.101562 11.484375 -14.613281 11.484375 -15.09375 C 11.484375 -15.914062 11.332031 -16.554688 11.03125 -17.015625 C 10.738281 -17.472656 10.390625 -17.800781 9.984375 -18 C 9.585938 -18.195312 9.226562 -18.296875 8.90625 -18.296875 Z M 8.90625 -18.296875 "/></g></g></g><g fill="#000000" fill-opacity="1"><g transform="translate(234.777993, 84.680769)"><g><path d="M 16.53125 -15.0625 C 16.53125 -14.625 16.519531 -14.210938 16.5 -13.828125 C 16.476562 -13.441406 16.457031 -13.007812 16.4375 -12.53125 C 16.425781 -12.0625 16.421875 -11.476562 16.421875 -10.78125 C 16.421875 -10.082031 16.425781 -9.492188 16.4375 -9.015625 C 16.457031 -8.546875 16.476562 -8.113281 16.5 -7.71875 C 16.519531 -7.332031 16.53125 -6.925781 16.53125 -6.5 C 16.53125 -5.1875 16.296875 -4.019531 15.828125 -3 C 15.359375 -1.988281 14.570312 -1.1875 13.46875 -0.59375 C 12.375 -0.0078125 10.898438 0.28125 9.046875 0.28125 C 7.160156 0.28125 5.664062 -0.046875 4.5625 -0.703125 C 3.46875 -1.359375 2.691406 -2.203125 2.234375 -3.234375 C 1.773438 -4.273438 1.546875 -5.363281 1.546875 -6.5 C 1.546875 -6.925781 1.550781 -7.332031 1.5625 -7.71875 C 1.582031 -8.113281 1.609375 -8.546875 1.640625 -9.015625 C 1.671875 -9.492188 1.6875 -10.082031 1.6875 -10.78125 C 1.6875 -11.476562 1.671875 -12.0625 1.640625 -12.53125 C 1.609375 -13.007812 1.582031 -13.441406 1.5625 -13.828125 C 1.550781 -14.210938 1.546875 -14.625 1.546875 -15.0625 C 1.546875 -16.375 1.785156 -17.535156 2.265625 -18.546875 C 2.742188 -19.566406 3.523438 -20.367188 4.609375 -20.953125 C 5.703125 -21.535156 7.179688 -21.828125 9.046875 -21.828125 C 10.921875 -21.828125 12.40625 -21.5 13.5 -20.84375 C 14.601562 -20.1875 15.382812 -19.335938 15.84375 -18.296875 C 16.300781 -17.265625 16.53125 -16.1875 16.53125 -15.0625 Z M 9 -2.984375 C 9.789062 -2.984375 10.378906 -3.164062 10.765625 -3.53125 C 11.160156 -3.90625 11.414062 -4.363281 11.53125 -4.90625 C 11.644531 -5.457031 11.703125 -5.988281 11.703125 -6.5 L 11.703125 -15.0625 C 11.703125 -15.25 11.679688 -15.53125 11.640625 -15.90625 C 11.597656 -16.28125 11.5 -16.671875 11.34375 -17.078125 C 11.195312 -17.492188 10.945312 -17.847656 10.59375 -18.140625 C 10.25 -18.429688 9.753906 -18.578125 9.109375 -18.578125 C 8.296875 -18.578125 7.691406 -18.390625 7.296875 -18.015625 C 6.910156 -17.648438 6.664062 -17.191406 6.5625 -16.640625 C 6.457031 -16.097656 6.40625 -15.570312 6.40625 -15.0625 L 6.40625 -6.5 C 6.40625 -6.3125 6.421875 -6.023438 6.453125 -5.640625 C 6.484375 -5.265625 6.570312 -4.867188 6.71875 -4.453125 C 6.875 -4.046875 7.128906 -3.695312 7.484375 -3.40625 C 7.847656 -3.125 8.351562 -2.984375 9 -2.984375 Z M 9 -2.984375 "/></g></g></g><g fill="#000000" fill-opacity="1"><g transform="translate(252.88845, 84.680769)"><g><path d="M 13.390625 -10.5625 C 14.398438 -10.289062 15.179688 -9.828125 15.734375 -9.171875 C 16.285156 -8.515625 16.5625 -7.53125 16.5625 -6.21875 C 16.5625 -4.882812 16.363281 -3.8125 15.96875 -3 C 15.570312 -2.1875 15.019531 -1.5625 14.3125 -1.125 C 13.613281 -0.6875 12.8125 -0.390625 11.90625 -0.234375 C 11.007812 -0.078125 10.054688 0 9.046875 0 L 2.15625 0 C 1.96875 0 1.816406 -0.0625 1.703125 -0.1875 C 1.597656 -0.3125 1.546875 -0.453125 1.546875 -0.609375 C 1.566406 -1.285156 1.59375 -2.484375 1.625 -4.203125 C 1.664062 -5.921875 1.6875 -8.113281 1.6875 -10.78125 C 1.6875 -13.46875 1.664062 -15.660156 1.625 -17.359375 C 1.59375 -19.066406 1.566406 -20.257812 1.546875 -20.9375 C 1.546875 -21.101562 1.597656 -21.25 1.703125 -21.375 C 1.816406 -21.5 1.96875 -21.5625 2.15625 -21.5625 L 8.84375 -21.5625 C 9.84375 -21.5625 10.796875 -21.484375 11.703125 -21.328125 C 12.609375 -21.171875 13.410156 -20.867188 14.109375 -20.421875 C 14.804688 -19.984375 15.351562 -19.359375 15.75 -18.546875 C 16.15625 -17.742188 16.359375 -16.675781 16.359375 -15.34375 C 16.359375 -14.0625 16.097656 -13.09375 15.578125 -12.4375 C 15.066406 -11.78125 14.335938 -11.320312 13.390625 -11.0625 C 13.273438 -11.019531 13.21875 -10.9375 13.21875 -10.8125 C 13.21875 -10.6875 13.273438 -10.601562 13.390625 -10.5625 Z M 8.90625 -18.296875 L 6.875 -18.296875 C 6.707031 -18.296875 6.5625 -18.238281 6.4375 -18.125 C 6.3125 -18.007812 6.25 -17.867188 6.25 -17.703125 C 6.25 -17.066406 6.242188 -16.359375 6.234375 -15.578125 C 6.222656 -14.796875 6.207031 -13.945312 6.1875 -13.03125 C 6.1875 -12.863281 6.25 -12.71875 6.375 -12.59375 C 6.5 -12.46875 6.644531 -12.40625 6.8125 -12.40625 L 8.90625 -12.40625 C 9.582031 -12.40625 10.109375 -12.550781 10.484375 -12.84375 C 10.867188 -13.144531 11.128906 -13.519531 11.265625 -13.96875 C 11.410156 -14.425781 11.484375 -14.894531 11.484375 -15.375 C 11.484375 -16.1875 11.332031 -16.800781 11.03125 -17.21875 C 10.738281 -17.644531 10.390625 -17.929688 9.984375 -18.078125 C 9.585938 -18.222656 9.226562 -18.296875 8.90625 -18.296875 Z M 9.109375 -3.265625 C 9.421875 -3.265625 9.78125 -3.335938 10.1875 -3.484375 C 10.601562 -3.628906 10.957031 -3.910156 11.25 -4.328125 C 11.550781 -4.742188 11.703125 -5.375 11.703125 -6.21875 C 11.703125 -6.675781 11.628906 -7.128906 11.484375 -7.578125 C 11.335938 -8.023438 11.070312 -8.394531 10.6875 -8.6875 C 10.3125 -8.988281 9.785156 -9.140625 9.109375 -9.140625 L 6.8125 -9.140625 C 6.644531 -9.140625 6.5 -9.078125 6.375 -8.953125 C 6.25 -8.835938 6.1875 -8.695312 6.1875 -8.53125 C 6.207031 -7.601562 6.222656 -6.75 6.234375 -5.96875 C 6.242188 -5.1875 6.25 -4.476562 6.25 -3.84375 C 6.25 -3.6875 6.3125 -3.550781 6.4375 -3.4375 C 6.5625 -3.320312 6.707031 -3.265625 6.875 -3.265625 Z M 9.109375 -3.265625 "/></g></g></g><g fill="#000000" fill-opacity="1"><g transform="translate(270.998907, 84.680769)"><g><path d="M 14.75 0 C 14.40625 0 14.203125 -0.164062 14.140625 -0.5 C 14.097656 -0.78125 14.023438 -1.1875 13.921875 -1.71875 C 13.816406 -2.257812 13.691406 -2.921875 13.546875 -3.703125 C 13.484375 -4.023438 13.289062 -4.1875 12.96875 -4.1875 L 7.390625 -4.1875 C 7.066406 -4.1875 6.863281 -4.023438 6.78125 -3.703125 C 6.632812 -2.921875 6.515625 -2.257812 6.421875 -1.71875 C 6.328125 -1.1875 6.25 -0.78125 6.1875 -0.5 C 6.144531 -0.164062 5.953125 0 5.609375 0 L 2 0 C 1.789062 0 1.625 -0.078125 1.5 -0.234375 C 1.382812 -0.390625 1.359375 -0.554688 1.421875 -0.734375 C 1.578125 -1.453125 1.847656 -2.660156 2.234375 -4.359375 C 2.628906 -6.054688 3.109375 -8.195312 3.671875 -10.78125 C 4.265625 -13.550781 4.722656 -15.800781 5.046875 -17.53125 C 5.378906 -19.269531 5.597656 -20.445312 5.703125 -21.0625 C 5.765625 -21.394531 5.957031 -21.5625 6.28125 -21.5625 L 14.046875 -21.5625 C 14.390625 -21.5625 14.59375 -21.394531 14.65625 -21.0625 C 14.757812 -20.445312 14.972656 -19.269531 15.296875 -17.53125 C 15.628906 -15.800781 16.082031 -13.550781 16.65625 -10.78125 C 17.21875 -8.195312 17.691406 -6.054688 18.078125 -4.359375 C 18.460938 -2.660156 18.75 -1.453125 18.9375 -0.734375 C 18.976562 -0.554688 18.9375 -0.390625 18.8125 -0.234375 C 18.6875 -0.078125 18.535156 0 18.359375 0 Z M 8.28125 -7.453125 L 12.078125 -7.453125 C 12.253906 -7.453125 12.40625 -7.523438 12.53125 -7.671875 C 12.65625 -7.816406 12.695312 -7.976562 12.65625 -8.15625 C 12.570312 -8.570312 12.484375 -9 12.390625 -9.4375 C 12.296875 -9.875 12.203125 -10.320312 12.109375 -10.78125 C 11.796875 -12.238281 11.507812 -13.554688 11.25 -14.734375 C 11 -15.910156 10.769531 -16.929688 10.5625 -17.796875 C 10.519531 -18.003906 10.390625 -18.109375 10.171875 -18.109375 C 9.960938 -18.109375 9.828125 -18.003906 9.765625 -17.796875 C 9.578125 -16.929688 9.347656 -15.910156 9.078125 -14.734375 C 8.816406 -13.554688 8.53125 -12.238281 8.21875 -10.78125 C 8.113281 -10.320312 8.015625 -9.875 7.921875 -9.4375 C 7.835938 -9 7.753906 -8.570312 7.671875 -8.15625 C 7.628906 -7.976562 7.664062 -7.816406 7.78125 -7.671875 C 7.90625 -7.523438 8.070312 -7.453125 8.28125 -7.453125 Z M 8.28125 -7.453125 "/></g></g></g><g fill="#000000" fill-opacity="1"><g transform="translate(291.357768, 84.680769)"><g><path d="M 13.390625 -10.5625 C 14.398438 -10.289062 15.179688 -9.828125 15.734375 -9.171875 C 16.285156 -8.515625 16.5625 -7.53125 16.5625 -6.21875 C 16.5625 -4.882812 16.363281 -3.8125 15.96875 -3 C 15.570312 -2.1875 15.019531 -1.5625 14.3125 -1.125 C 13.613281 -0.6875 12.8125 -0.390625 11.90625 -0.234375 C 11.007812 -0.078125 10.054688 0 9.046875 0 L 2.15625 0 C 1.96875 0 1.816406 -0.0625 1.703125 -0.1875 C 1.597656 -0.3125 1.546875 -0.453125 1.546875 -0.609375 C 1.566406 -1.285156 1.59375 -2.484375 1.625 -4.203125 C 1.664062 -5.921875 1.6875 -8.113281 1.6875 -10.78125 C 1.6875 -13.46875 1.664062 -15.660156 1.625 -17.359375 C 1.59375 -19.066406 1.566406 -20.257812 1.546875 -20.9375 C 1.546875 -21.101562 1.597656 -21.25 1.703125 -21.375 C 1.816406 -21.5 1.96875 -21.5625 2.15625 -21.5625 L 8.84375 -21.5625 C 9.84375 -21.5625 10.796875 -21.484375 11.703125 -21.328125 C 12.609375 -21.171875 13.410156 -20.867188 14.109375 -20.421875 C 14.804688 -19.984375 15.351562 -19.359375 15.75 -18.546875 C 16.15625 -17.742188 16.359375 -16.675781 16.359375 -15.34375 C 16.359375 -14.0625 16.097656 -13.09375 15.578125 -12.4375 C 15.066406 -11.78125 14.335938 -11.320312 13.390625 -11.0625 C 13.273438 -11.019531 13.21875 -10.9375 13.21875 -10.8125 C 13.21875 -10.6875 13.273438 -10.601562 13.390625 -10.5625 Z M 8.90625 -18.296875 L 6.875 -18.296875 C 6.707031 -18.296875 6.5625 -18.238281 6.4375 -18.125 C 6.3125 -18.007812 6.25 -17.867188 6.25 -17.703125 C 6.25 -17.066406 6.242188 -16.359375 6.234375 -15.578125 C 6.222656 -14.796875 6.207031 -13.945312 6.1875 -13.03125 C 6.1875 -12.863281 6.25 -12.71875 6.375 -12.59375 C 6.5 -12.46875 6.644531 -12.40625 6.8125 -12.40625 L 8.90625 -12.40625 C 9.582031 -12.40625 10.109375 -12.550781 10.484375 -12.84375 C 10.867188 -13.144531 11.128906 -13.519531 11.265625 -13.96875 C 11.410156 -14.425781 11.484375 -14.894531 11.484375 -15.375 C 11.484375 -16.1875 11.332031 -16.800781 11.03125 -17.21875 C 10.738281 -17.644531 10.390625 -17.929688 9.984375 -18.078125 C 9.585938 -18.222656 9.226562 -18.296875 8.90625 -18.296875 Z M 9.109375 -3.265625 C 9.421875 -3.265625 9.78125 -3.335938 10.1875 -3.484375 C 10.601562 -3.628906 10.957031 -3.910156 11.25 -4.328125 C 11.550781 -4.742188 11.703125 -5.375 11.703125 -6.21875 C 11.703125 -6.675781 11.628906 -7.128906 11.484375 -7.578125 C 11.335938 -8.023438 11.070312 -8.394531 10.6875 -8.6875 C 10.3125 -8.988281 9.785156 -9.140625 9.109375 -9.140625 L 6.8125 -9.140625 C 6.644531 -9.140625 6.5 -9.078125 6.375 -8.953125 C 6.25 -8.835938 6.1875 -8.695312 6.1875 -8.53125 C 6.207031 -7.601562 6.222656 -6.75 6.234375 -5.96875 C 6.242188 -5.1875 6.25 -4.476562 6.25 -3.84375 C 6.25 -3.6875 6.3125 -3.550781 6.4375 -3.4375 C 6.5625 -3.320312 6.707031 -3.265625 6.875 -3.265625 Z M 9.109375 -3.265625 "/></g></g></g><g fill="#000000" fill-opacity="1"><g transform="translate(309.468225, 84.680769)"><g><path d="M 6.125 -3.875 C 6.125 -3.71875 6.179688 -3.578125 6.296875 -3.453125 C 6.410156 -3.328125 6.550781 -3.265625 6.71875 -3.265625 L 12.71875 -3.265625 C 12.882812 -3.265625 13.023438 -3.203125 13.140625 -3.078125 C 13.265625 -2.953125 13.328125 -2.8125 13.328125 -2.65625 L 13.328125 -0.609375 C 13.328125 -0.453125 13.265625 -0.3125 13.140625 -0.1875 C 13.023438 -0.0625 12.882812 0 12.71875 0 L 2.15625 0 C 1.988281 0 1.84375 -0.0625 1.71875 -0.1875 C 1.601562 -0.3125 1.546875 -0.453125 1.546875 -0.609375 L 1.546875 -20.9375 C 1.546875 -21.101562 1.601562 -21.25 1.71875 -21.375 C 1.84375 -21.5 1.988281 -21.5625 2.15625 -21.5625 L 5.765625 -21.5625 C 5.941406 -21.5625 6.085938 -21.5 6.203125 -21.375 C 6.316406 -21.25 6.375 -21.101562 6.375 -20.9375 C 6.375 -20.382812 6.359375 -19.515625 6.328125 -18.328125 C 6.296875 -17.148438 6.269531 -15.769531 6.25 -14.1875 C 6.226562 -12.613281 6.203125 -10.9375 6.171875 -9.15625 C 6.140625 -7.382812 6.125 -5.625 6.125 -3.875 Z M 6.125 -3.875 "/></g></g></g><g fill="#000000" fill-opacity="1"><g transform="translate(324.190674, 84.680769)"><g><path d="M 13.953125 -14.96875 C 13.335938 -13.570312 12.832031 -12.390625 12.4375 -11.421875 C 12.050781 -10.460938 11.753906 -9.734375 11.546875 -9.234375 C 11.421875 -8.929688 11.359375 -8.613281 11.359375 -8.28125 C 11.335938 -7.875 11.316406 -7.382812 11.296875 -6.8125 C 11.273438 -6.25 11.265625 -5.609375 11.265625 -4.890625 C 11.265625 -3.867188 11.28125 -3.003906 11.3125 -2.296875 C 11.34375 -1.585938 11.367188 -1.035156 11.390625 -0.640625 C 11.410156 -0.460938 11.359375 -0.3125 11.234375 -0.1875 C 11.117188 -0.0625 10.96875 0 10.78125 0 L 7.265625 0 C 7.078125 0 6.921875 -0.0625 6.796875 -0.1875 C 6.679688 -0.3125 6.632812 -0.460938 6.65625 -0.640625 C 6.675781 -1.035156 6.703125 -1.585938 6.734375 -2.296875 C 6.765625 -3.003906 6.78125 -3.867188 6.78125 -4.890625 C 6.78125 -5.609375 6.769531 -6.25 6.75 -6.8125 C 6.726562 -7.382812 6.707031 -7.875 6.6875 -8.28125 C 6.6875 -8.613281 6.625 -8.929688 6.5 -9.234375 C 6.289062 -9.734375 5.988281 -10.460938 5.59375 -11.421875 C 5.207031 -12.390625 4.707031 -13.570312 4.09375 -14.96875 C 3.476562 -16.34375 2.941406 -17.503906 2.484375 -18.453125 C 2.035156 -19.410156 1.691406 -20.160156 1.453125 -20.703125 C 1.347656 -20.878906 1.351562 -21.066406 1.46875 -21.265625 C 1.59375 -21.460938 1.769531 -21.5625 2 -21.5625 L 5.421875 -21.5625 C 5.703125 -21.5625 5.894531 -21.414062 6 -21.125 C 6.125 -20.695312 6.351562 -19.960938 6.6875 -18.921875 C 7.03125 -17.890625 7.488281 -16.570312 8.0625 -14.96875 C 8.3125 -14.289062 8.550781 -13.644531 8.78125 -13.03125 C 8.820312 -12.90625 8.898438 -12.84375 9.015625 -12.84375 C 9.140625 -12.84375 9.222656 -12.90625 9.265625 -13.03125 C 9.492188 -13.644531 9.734375 -14.289062 9.984375 -14.96875 C 10.554688 -16.570312 11.007812 -17.890625 11.34375 -18.921875 C 11.6875 -19.960938 11.921875 -20.695312 12.046875 -21.125 C 12.148438 -21.414062 12.34375 -21.5625 12.625 -21.5625 L 16.046875 -21.5625 C 16.273438 -21.5625 16.445312 -21.460938 16.5625 -21.265625 C 16.6875 -21.066406 16.695312 -20.878906 16.59375 -20.703125 C 16.351562 -20.160156 16.003906 -19.410156 15.546875 -18.453125 C 15.097656 -17.503906 14.566406 -16.34375 13.953125 -14.96875 Z M 13.953125 -14.96875 "/></g></g></g><g fill="#000000" fill-opacity="1"><g transform="translate(342.270332, 84.680769)"><g><path d="M 6.5 -3.96875 L 6.59375 -0.609375 C 6.59375 -0.453125 6.53125 -0.3125 6.40625 -0.1875 C 6.28125 -0.0625 6.132812 0 5.96875 0 L 2.15625 0 C 1.96875 0 1.816406 -0.0625 1.703125 -0.1875 C 1.597656 -0.3125 1.546875 -0.453125 1.546875 -0.609375 L 1.625 -3.96875 C 1.625 -4.132812 1.679688 -4.28125 1.796875 -4.40625 C 1.910156 -4.53125 2.050781 -4.59375 2.21875 -4.59375 L 5.875 -4.59375 C 6.039062 -4.59375 6.1875 -4.53125 6.3125 -4.40625 C 6.4375 -4.28125 6.5 -4.132812 6.5 -3.96875 Z M 6.5 -3.96875 "/></g></g></g><g fill="#000000" fill-opacity="1"><g transform="translate(350.401555, 84.680769)"><g><path d="M 6.5 -3.96875 L 6.59375 -0.609375 C 6.59375 -0.453125 6.53125 -0.3125 6.40625 -0.1875 C 6.28125 -0.0625 6.132812 0 5.96875 0 L 2.15625 0 C 1.96875 0 1.816406 -0.0625 1.703125 -0.1875 C 1.597656 -0.3125 1.546875 -0.453125 1.546875 -0.609375 L 1.625 -3.96875 C 1.625 -4.132812 1.679688 -4.28125 1.796875 -4.40625 C 1.910156 -4.53125 2.050781 -4.59375 2.21875 -4.59375 L 5.875 -4.59375 C 6.039062 -4.59375 6.1875 -4.53125 6.3125 -4.40625 C 6.4375 -4.28125 6.5 -4.132812 6.5 -3.96875 Z M 6.5 -3.96875 "/></g></g></g><g fill="#000000" fill-opacity="1"><g transform="translate(358.532787, 84.680769)"><g><path d="M 6.5 -3.96875 L 6.59375 -0.609375 C 6.59375 -0.453125 6.53125 -0.3125 6.40625 -0.1875 C 6.28125 -0.0625 6.132812 0 5.96875 0 L 2.15625 0 C 1.96875 0 1.816406 -0.0625 1.703125 -0.1875 C 1.597656 -0.3125 1.546875 -0.453125 1.546875 -0.609375 L 1.625 -3.96875 C 1.625 -4.132812 1.679688 -4.28125 1.796875 -4.40625 C 1.910156 -4.53125 2.050781 -4.59375 2.21875 -4.59375 L 5.875 -4.59375 C 6.039062 -4.59375 6.1875 -4.53125 6.3125 -4.40625 C 6.4375 -4.28125 6.5 -4.132812 6.5 -3.96875 Z M 6.5 -3.96875 "/></g></g></g><g fill="#000000" fill-opacity="1"><g transform="translate(366.667932, 84.680769)"><g/></g></g><g fill="#000000" fill-opacity="1"><g transform="translate(419.412071, 130.783583)"><g><path d="M 30.09375 -38.703125 C 34.507812 -37.191406 37.898438 -35.273438 40.265625 -32.953125 C 42.628906 -30.628906 44.066406 -28.148438 44.578125 -25.515625 C 45.097656 -22.878906 44.757812 -20.285156 43.5625 -17.734375 C 42.363281 -15.179688 40.40625 -12.875 37.6875 -10.8125 C 34.976562 -8.757812 31.617188 -7.140625 27.609375 -5.953125 C 25.671875 -5.429688 23.679688 -4.914062 21.640625 -4.40625 C 19.609375 -3.894531 17.664062 -3.289062 15.8125 -2.59375 C 15.59375 -2.519531 15.222656 -2.210938 14.703125 -1.671875 C 14.191406 -1.128906 13.5625 -0.570312 12.8125 0 C 12.0625 0.582031 11.242188 1.03125 10.359375 1.34375 C 9.472656 1.664062 8.535156 1.648438 7.546875 1.296875 C 6.554688 0.941406 5.5625 0.0507812 4.5625 -1.375 C 3.925781 -2.3125 3.25 -3.128906 2.53125 -3.828125 C 1.8125 -4.535156 1.191406 -5.25 0.671875 -5.96875 C 0.148438 -6.695312 -0.128906 -7.535156 -0.171875 -8.484375 C -0.222656 -9.429688 0.117188 -10.632812 0.859375 -12.09375 C 1.242188 -12.863281 1.476562 -13.492188 1.5625 -13.984375 C 1.65625 -14.484375 1.65625 -15.140625 1.5625 -15.953125 C 1.132812 -19.941406 0.816406 -23.953125 0.609375 -27.984375 C 0.410156 -32.015625 0.398438 -36.007812 0.578125 -39.96875 C 0.648438 -41.71875 0.910156 -43.753906 1.359375 -46.078125 C 1.816406 -48.410156 2.445312 -50.679688 3.25 -52.890625 C 4.0625 -55.097656 5.003906 -56.875 6.078125 -58.21875 C 6.953125 -59.300781 7.769531 -59.992188 8.53125 -60.296875 C 9.300781 -60.609375 10.054688 -60.726562 10.796875 -60.65625 C 11.535156 -60.582031 12.234375 -60.484375 12.890625 -60.359375 C 13.554688 -60.234375 14.234375 -60.269531 14.921875 -60.46875 C 18.960938 -61.8125 22.679688 -62.421875 26.078125 -62.296875 C 29.472656 -62.171875 32.316406 -61.472656 34.609375 -60.203125 C 36.910156 -58.941406 38.398438 -57.210938 39.078125 -55.015625 C 39.753906 -52.828125 39.414062 -50.34375 38.0625 -47.5625 C 36.71875 -44.789062 34.0625 -41.835938 30.09375 -38.703125 Z M 14.578125 -30.359375 C 14.503906 -28.503906 14.421875 -26.632812 14.328125 -24.75 C 14.234375 -22.875 14.179688 -20.988281 14.171875 -19.09375 C 17.785156 -19.445312 20.535156 -20.210938 22.421875 -21.390625 C 24.316406 -22.566406 25.320312 -23.847656 25.4375 -25.234375 C 25.5625 -26.628906 24.726562 -27.835938 22.9375 -28.859375 C 21.15625 -29.878906 18.367188 -30.378906 14.578125 -30.359375 Z M 17.15625 -51.640625 C 17.070312 -51.085938 16.929688 -50.332031 16.734375 -49.375 C 16.535156 -48.414062 16.367188 -47.457031 16.234375 -46.5 C 16.097656 -45.539062 15.992188 -44.789062 15.921875 -44.25 C 18.753906 -44.820312 20.738281 -45.648438 21.875 -46.734375 C 23.007812 -47.828125 23.492188 -48.882812 23.328125 -49.90625 C 23.171875 -50.9375 22.523438 -51.664062 21.390625 -52.09375 C 20.265625 -52.519531 18.851562 -52.367188 17.15625 -51.640625 Z M 17.15625 -51.640625 "/></g></g></g><g fill="#000000" fill-opacity="1"><g transform="translate(467.365851, 128.355259)"><g><path d="M 15.734375 -23.65625 C 17.347656 -23.738281 19.179688 -23.859375 21.234375 -24.015625 C 23.296875 -24.179688 25.367188 -24.234375 27.453125 -24.171875 C 29.535156 -24.109375 31.457031 -23.796875 33.21875 -23.234375 C 34.988281 -22.679688 36.425781 -21.710938 37.53125 -20.328125 C 38.632812 -18.953125 39.191406 -17.015625 39.203125 -14.515625 C 39.191406 -13.859375 39.128906 -13.253906 39.015625 -12.703125 C 38.910156 -12.160156 38.738281 -11.582031 38.5 -10.96875 C 37.832031 -9.09375 36.878906 -7.742188 35.640625 -6.921875 C 34.410156 -6.109375 32.789062 -5.625 30.78125 -5.46875 C 27.550781 -5.25 24.296875 -5.34375 21.015625 -5.75 C 17.742188 -6.15625 14.5 -6.625 11.28125 -7.15625 C 4.988281 -8.238281 1.519531 -11.890625 0.875 -18.109375 C 0.757812 -19.296875 0.609375 -20.957031 0.421875 -23.09375 C 0.234375 -25.226562 0.046875 -27.628906 -0.140625 -30.296875 C -0.335938 -32.960938 -0.476562 -35.703125 -0.5625 -38.515625 C -0.644531 -41.335938 -0.671875 -44.035156 -0.640625 -46.609375 C -0.609375 -49.191406 -0.46875 -51.476562 -0.21875 -53.46875 C 0.03125 -55.46875 0.398438 -56.910156 0.890625 -57.796875 C 1.835938 -59.523438 3.050781 -60.484375 4.53125 -60.671875 C 6.007812 -60.859375 7.410156 -60.46875 8.734375 -59.5 C 10.066406 -58.53125 10.960938 -57.21875 11.421875 -55.5625 C 12.410156 -52.09375 13.085938 -48.578125 13.453125 -45.015625 C 13.828125 -41.460938 14.160156 -37.898438 14.453125 -34.328125 C 14.742188 -30.765625 15.171875 -27.207031 15.734375 -23.65625 Z M 15.734375 -23.65625 "/></g></g></g><g fill="#000000" fill-opacity="1"><g transform="translate(509.315268, 126.230989)"><g><path d="M 31.625 -22.828125 C 29.75 -22.578125 27.847656 -22.332031 25.921875 -22.09375 C 24.003906 -21.863281 22.101562 -21.644531 20.21875 -21.4375 C 19.738281 -21.363281 19.40625 -21.253906 19.21875 -21.109375 C 19.039062 -20.960938 18.828125 -20.660156 18.578125 -20.203125 C 17.804688 -18.492188 16.992188 -16.664062 16.140625 -14.71875 C 15.285156 -12.78125 14.332031 -10.992188 13.28125 -9.359375 C 12.519531 -8.191406 11.59375 -7.429688 10.5 -7.078125 C 9.40625 -6.734375 8.332031 -6.75 7.28125 -7.125 C 6.238281 -7.5 5.378906 -8.15625 4.703125 -9.09375 C 4.035156 -10.039062 3.75 -11.191406 3.84375 -12.546875 C 3.90625 -13.484375 4.085938 -14.457031 4.390625 -15.46875 C 4.691406 -16.488281 4.957031 -17.441406 5.1875 -18.328125 C 3.988281 -18.429688 2.847656 -18.65625 1.765625 -19 C 0.691406 -19.351562 0.0625 -20.285156 -0.125 -21.796875 C -0.25 -23.203125 0.0664062 -24.164062 0.828125 -24.6875 C 1.585938 -25.21875 2.539062 -25.59375 3.6875 -25.8125 C 4.84375 -26.039062 5.941406 -26.316406 6.984375 -26.640625 C 8.023438 -26.960938 8.765625 -27.59375 9.203125 -28.53125 C 11.210938 -32.75 13.226562 -36.890625 15.25 -40.953125 C 17.269531 -45.015625 19.757812 -48.859375 22.71875 -52.484375 C 24.363281 -54.515625 26.347656 -55.578125 28.671875 -55.671875 C 30.992188 -55.765625 33.019531 -54.769531 34.75 -52.6875 C 36.144531 -51.019531 37.195312 -49.050781 37.90625 -46.78125 C 38.613281 -44.519531 39.242188 -42.21875 39.796875 -39.875 C 40.347656 -37.539062 41.023438 -35.394531 41.828125 -33.4375 C 42.585938 -33.414062 43.535156 -33.445312 44.671875 -33.53125 C 45.804688 -33.613281 46.945312 -33.601562 48.09375 -33.5 C 49.238281 -33.394531 50.210938 -33.117188 51.015625 -32.671875 C 51.828125 -32.234375 52.257812 -31.472656 52.3125 -30.390625 C 52.53125 -28.398438 51.644531 -27.132812 49.65625 -26.59375 C 48.96875 -26.394531 47.960938 -26.15625 46.640625 -25.875 C 45.328125 -25.59375 44.382812 -25.25 43.8125 -24.84375 C 44.019531 -23.757812 44.296875 -22.535156 44.640625 -21.171875 C 44.984375 -19.804688 45.203125 -18.460938 45.296875 -17.140625 C 45.390625 -15.816406 45.175781 -14.640625 44.65625 -13.609375 C 44.132812 -12.578125 43.109375 -11.804688 41.578125 -11.296875 C 40.515625 -10.972656 39.441406 -11.023438 38.359375 -11.453125 C 37.273438 -11.890625 36.4375 -12.582031 35.84375 -13.53125 C 34.957031 -15 34.210938 -16.546875 33.609375 -18.171875 C 33.015625 -19.796875 32.351562 -21.347656 31.625 -22.828125 Z M 23.390625 -29.65625 C 24.304688 -29.8125 25.21875 -29.976562 26.125 -30.15625 C 27.039062 -30.34375 27.9375 -30.488281 28.8125 -30.59375 C 28.539062 -31.5 28.273438 -32.390625 28.015625 -33.265625 C 27.753906 -34.148438 27.460938 -35.019531 27.140625 -35.875 L 26.90625 -35.859375 C 26.300781 -34.847656 25.695312 -33.828125 25.09375 -32.796875 C 24.5 -31.765625 23.929688 -30.71875 23.390625 -29.65625 Z M 23.390625 -29.65625 "/></g></g><g transform="translate(564.084825, 123.457521)"><g><path d="M 20.484375 -48.296875 C 23.015625 -49.898438 25.519531 -51.601562 28 -53.40625 C 30.488281 -55.21875 33.023438 -56.863281 35.609375 -58.34375 C 36.453125 -58.820312 37.351562 -59.191406 38.3125 -59.453125 C 39.269531 -59.710938 40.222656 -59.707031 41.171875 -59.4375 C 42.597656 -59.019531 43.707031 -58.207031 44.5 -57 C 45.289062 -55.800781 45.644531 -54.46875 45.5625 -53 C 45.507812 -51.738281 45.070312 -50.4375 44.25 -49.09375 C 43.425781 -47.75 42.410156 -46.4375 41.203125 -45.15625 C 39.992188 -43.875 38.765625 -42.675781 37.515625 -41.5625 C 36.273438 -40.445312 35.210938 -39.457031 34.328125 -38.59375 C 35.753906 -38.175781 37.378906 -37.644531 39.203125 -37 C 41.023438 -36.351562 42.796875 -35.613281 44.515625 -34.78125 C 46.242188 -33.957031 47.628906 -33.035156 48.671875 -32.015625 C 50.148438 -30.554688 51.015625 -28.894531 51.265625 -27.03125 C 51.523438 -25.175781 51.273438 -23.414062 50.515625 -21.75 C 49.765625 -20.09375 48.613281 -18.757812 47.0625 -17.75 C 45.507812 -16.75 43.644531 -16.390625 41.46875 -16.671875 C 39.832031 -16.859375 37.960938 -17.316406 35.859375 -18.046875 C 33.753906 -18.785156 31.59375 -19.664062 29.375 -20.6875 C 27.15625 -21.707031 25.015625 -22.734375 22.953125 -23.765625 C 20.890625 -24.804688 19.078125 -25.695312 17.515625 -26.4375 C 17.273438 -25.882812 17.003906 -24.890625 16.703125 -23.453125 C 16.410156 -22.023438 16.113281 -20.453125 15.8125 -18.734375 C 15.519531 -17.015625 15.238281 -15.359375 14.96875 -13.765625 C 14.695312 -12.179688 14.445312 -10.976562 14.21875 -10.15625 C 13.800781 -8.550781 12.90625 -7.363281 11.53125 -6.59375 C 10.164062 -5.832031 8.65625 -5.53125 7 -5.6875 C 5.34375 -5.851562 3.894531 -6.578125 2.65625 -7.859375 C 1.414062 -9.148438 0.734375 -11.039062 0.609375 -13.53125 C 0.472656 -16.238281 0.59375 -19.210938 0.96875 -22.453125 C 1.351562 -25.703125 1.878906 -29.050781 2.546875 -32.5 C 3.210938 -35.957031 3.90625 -39.316406 4.625 -42.578125 C 5.351562 -45.835938 6.007812 -48.816406 6.59375 -51.515625 C 6.894531 -52.835938 7.347656 -54.238281 7.953125 -55.71875 C 8.554688 -57.207031 9.375 -58.484375 10.40625 -59.546875 C 11.4375 -60.609375 12.742188 -61.09375 14.328125 -61 C 16.492188 -60.894531 18.085938 -59.8125 19.109375 -57.75 C 19.773438 -56.4375 20.148438 -54.898438 20.234375 -53.140625 C 20.328125 -51.378906 20.410156 -49.765625 20.484375 -48.296875 Z M 20.484375 -48.296875 "/></g></g></g></svg>